<mxfile host="Electron" agent="Mozilla/5.0 (Windows NT 10.0; Win64; x64) AppleWebKit/537.36 (KHTML, like Gecko) draw.io/24.7.17 Chrome/128.0.6613.36 Electron/32.0.1 Safari/537.36" version="24.7.17">
  <diagram id="IQWM0BGBrUBT5PwkLtIU" name="db-diagram">
    <mxGraphModel dx="2206" dy="1686" grid="1" gridSize="10" guides="1" tooltips="1" connect="1" arrows="1" fold="1" page="0" pageScale="1" pageWidth="850" pageHeight="1100" math="0" shadow="0">
      <root>
        <mxCell id="0" />
        <mxCell id="1" parent="0" />
        <mxCell id="VqIRqjXax7T4qneetQDV-250" value="tbl_person" style="shape=table;startSize=30;container=1;collapsible=1;childLayout=tableLayout;fixedRows=1;rowLines=0;fontStyle=1;align=center;resizeLast=1;fillColor=#6a00ff;strokeColor=#3700CC;rounded=1;shadow=0;swimlaneLine=1;sketch=0;columnLines=1;fontColor=#ffffff;" parent="1" vertex="1">
          <mxGeometry x="440" y="360" width="180" height="449" as="geometry" />
        </mxCell>
        <mxCell id="VqIRqjXax7T4qneetQDV-251" value="" style="shape=tableRow;horizontal=0;startSize=0;swimlaneHead=0;swimlaneBody=0;fillColor=none;collapsible=0;dropTarget=0;points=[[0,0.5],[1,0.5]];portConstraint=eastwest;top=0;left=0;right=0;bottom=1;" parent="VqIRqjXax7T4qneetQDV-250" vertex="1">
          <mxGeometry y="30" width="180" height="33" as="geometry" />
        </mxCell>
        <mxCell id="VqIRqjXax7T4qneetQDV-252" value="PK" style="shape=partialRectangle;connectable=0;fillColor=none;top=0;left=0;bottom=0;right=0;fontStyle=1;overflow=hidden;" parent="VqIRqjXax7T4qneetQDV-251" vertex="1">
          <mxGeometry width="40.00000000000023" height="33" as="geometry">
            <mxRectangle width="40.00000000000023" height="33" as="alternateBounds" />
          </mxGeometry>
        </mxCell>
        <mxCell id="VqIRqjXax7T4qneetQDV-253" value="id" style="shape=partialRectangle;connectable=0;fillColor=none;top=0;left=0;bottom=0;right=0;align=left;spacingLeft=6;fontStyle=5;overflow=hidden;" parent="VqIRqjXax7T4qneetQDV-251" vertex="1">
          <mxGeometry x="40.00000000000023" width="139.99999999999977" height="33" as="geometry">
            <mxRectangle width="139.99999999999977" height="33" as="alternateBounds" />
          </mxGeometry>
        </mxCell>
        <mxCell id="FiXkTNru_0fniCdlmBQr-347" value="" style="shape=tableRow;horizontal=0;startSize=0;swimlaneHead=0;swimlaneBody=0;fillColor=none;collapsible=0;dropTarget=0;points=[[0,0.5],[1,0.5]];portConstraint=eastwest;top=0;left=0;right=0;bottom=1;" vertex="1" parent="VqIRqjXax7T4qneetQDV-250">
          <mxGeometry y="63" width="180" height="33" as="geometry" />
        </mxCell>
        <mxCell id="FiXkTNru_0fniCdlmBQr-348" value="FK" style="shape=partialRectangle;connectable=0;fillColor=none;top=0;left=0;bottom=0;right=0;fontStyle=1;overflow=hidden;" vertex="1" parent="FiXkTNru_0fniCdlmBQr-347">
          <mxGeometry width="40.00000000000023" height="33" as="geometry">
            <mxRectangle width="40.00000000000023" height="33" as="alternateBounds" />
          </mxGeometry>
        </mxCell>
        <mxCell id="FiXkTNru_0fniCdlmBQr-349" value="account_id" style="shape=partialRectangle;connectable=0;fillColor=none;top=0;left=0;bottom=0;right=0;align=left;spacingLeft=6;fontStyle=5;overflow=hidden;" vertex="1" parent="FiXkTNru_0fniCdlmBQr-347">
          <mxGeometry x="40.00000000000023" width="139.99999999999977" height="33" as="geometry">
            <mxRectangle width="139.99999999999977" height="33" as="alternateBounds" />
          </mxGeometry>
        </mxCell>
        <mxCell id="VqIRqjXax7T4qneetQDV-254" value="" style="shape=tableRow;horizontal=0;startSize=0;swimlaneHead=0;swimlaneBody=0;fillColor=none;collapsible=0;dropTarget=0;points=[[0,0.5],[1,0.5]];portConstraint=eastwest;top=0;left=0;right=0;bottom=0;" parent="VqIRqjXax7T4qneetQDV-250" vertex="1">
          <mxGeometry y="96" width="180" height="32" as="geometry" />
        </mxCell>
        <mxCell id="VqIRqjXax7T4qneetQDV-255" value="text" style="shape=partialRectangle;connectable=0;fillColor=none;top=0;left=0;bottom=0;right=0;editable=1;overflow=hidden;" parent="VqIRqjXax7T4qneetQDV-254" vertex="1">
          <mxGeometry width="40.00000000000023" height="32" as="geometry">
            <mxRectangle width="40.00000000000023" height="32" as="alternateBounds" />
          </mxGeometry>
        </mxCell>
        <mxCell id="VqIRqjXax7T4qneetQDV-256" value="first_name" style="shape=partialRectangle;connectable=0;fillColor=none;top=0;left=0;bottom=0;right=0;align=left;spacingLeft=6;overflow=hidden;" parent="VqIRqjXax7T4qneetQDV-254" vertex="1">
          <mxGeometry x="40.00000000000023" width="139.99999999999977" height="32" as="geometry">
            <mxRectangle width="139.99999999999977" height="32" as="alternateBounds" />
          </mxGeometry>
        </mxCell>
        <mxCell id="VqIRqjXax7T4qneetQDV-257" value="" style="shape=tableRow;horizontal=0;startSize=0;swimlaneHead=0;swimlaneBody=0;fillColor=none;collapsible=0;dropTarget=0;points=[[0,0.5],[1,0.5]];portConstraint=eastwest;top=0;left=0;right=0;bottom=0;" parent="VqIRqjXax7T4qneetQDV-250" vertex="1">
          <mxGeometry y="128" width="180" height="33" as="geometry" />
        </mxCell>
        <mxCell id="VqIRqjXax7T4qneetQDV-258" value="text" style="shape=partialRectangle;connectable=0;fillColor=none;top=0;left=0;bottom=0;right=0;editable=1;overflow=hidden;" parent="VqIRqjXax7T4qneetQDV-257" vertex="1">
          <mxGeometry width="40.00000000000023" height="33" as="geometry">
            <mxRectangle width="40.00000000000023" height="33" as="alternateBounds" />
          </mxGeometry>
        </mxCell>
        <mxCell id="VqIRqjXax7T4qneetQDV-259" value="last_name" style="shape=partialRectangle;connectable=0;fillColor=none;top=0;left=0;bottom=0;right=0;align=left;spacingLeft=6;overflow=hidden;" parent="VqIRqjXax7T4qneetQDV-257" vertex="1">
          <mxGeometry x="40.00000000000023" width="139.99999999999977" height="33" as="geometry">
            <mxRectangle width="139.99999999999977" height="33" as="alternateBounds" />
          </mxGeometry>
        </mxCell>
        <mxCell id="VqIRqjXax7T4qneetQDV-263" value="" style="shape=tableRow;horizontal=0;startSize=0;swimlaneHead=0;swimlaneBody=0;fillColor=none;collapsible=0;dropTarget=0;points=[[0,0.5],[1,0.5]];portConstraint=eastwest;top=0;left=0;right=0;bottom=0;" parent="VqIRqjXax7T4qneetQDV-250" vertex="1">
          <mxGeometry y="161" width="180" height="32" as="geometry" />
        </mxCell>
        <mxCell id="VqIRqjXax7T4qneetQDV-264" value="text?" style="shape=partialRectangle;connectable=0;fillColor=none;top=0;left=0;bottom=0;right=0;editable=1;overflow=hidden;" parent="VqIRqjXax7T4qneetQDV-263" vertex="1">
          <mxGeometry width="40.00000000000023" height="32" as="geometry">
            <mxRectangle width="40.00000000000023" height="32" as="alternateBounds" />
          </mxGeometry>
        </mxCell>
        <mxCell id="VqIRqjXax7T4qneetQDV-265" value="avatar" style="shape=partialRectangle;connectable=0;fillColor=none;top=0;left=0;bottom=0;right=0;align=left;spacingLeft=6;overflow=hidden;" parent="VqIRqjXax7T4qneetQDV-263" vertex="1">
          <mxGeometry x="40.00000000000023" width="139.99999999999977" height="32" as="geometry">
            <mxRectangle width="139.99999999999977" height="32" as="alternateBounds" />
          </mxGeometry>
        </mxCell>
        <mxCell id="FiXkTNru_0fniCdlmBQr-344" value="" style="shape=tableRow;horizontal=0;startSize=0;swimlaneHead=0;swimlaneBody=0;fillColor=none;collapsible=0;dropTarget=0;points=[[0,0.5],[1,0.5]];portConstraint=eastwest;top=0;left=0;right=0;bottom=0;" vertex="1" parent="VqIRqjXax7T4qneetQDV-250">
          <mxGeometry y="193" width="180" height="32" as="geometry" />
        </mxCell>
        <mxCell id="FiXkTNru_0fniCdlmBQr-345" value="text?" style="shape=partialRectangle;connectable=0;fillColor=none;top=0;left=0;bottom=0;right=0;editable=1;overflow=hidden;" vertex="1" parent="FiXkTNru_0fniCdlmBQr-344">
          <mxGeometry width="40.00000000000023" height="32" as="geometry">
            <mxRectangle width="40.00000000000023" height="32" as="alternateBounds" />
          </mxGeometry>
        </mxCell>
        <mxCell id="FiXkTNru_0fniCdlmBQr-346" value="description" style="shape=partialRectangle;connectable=0;fillColor=none;top=0;left=0;bottom=0;right=0;align=left;spacingLeft=6;overflow=hidden;" vertex="1" parent="FiXkTNru_0fniCdlmBQr-344">
          <mxGeometry x="40.00000000000023" width="139.99999999999977" height="32" as="geometry">
            <mxRectangle width="139.99999999999977" height="32" as="alternateBounds" />
          </mxGeometry>
        </mxCell>
        <mxCell id="FiXkTNru_0fniCdlmBQr-1" value="" style="shape=tableRow;horizontal=0;startSize=0;swimlaneHead=0;swimlaneBody=0;fillColor=none;collapsible=0;dropTarget=0;points=[[0,0.5],[1,0.5]];portConstraint=eastwest;top=0;left=0;right=0;bottom=0;" vertex="1" parent="VqIRqjXax7T4qneetQDV-250">
          <mxGeometry y="225" width="180" height="32" as="geometry" />
        </mxCell>
        <mxCell id="FiXkTNru_0fniCdlmBQr-2" value="text?" style="shape=partialRectangle;connectable=0;fillColor=none;top=0;left=0;bottom=0;right=0;editable=1;overflow=hidden;" vertex="1" parent="FiXkTNru_0fniCdlmBQr-1">
          <mxGeometry width="40.00000000000023" height="32" as="geometry">
            <mxRectangle width="40.00000000000023" height="32" as="alternateBounds" />
          </mxGeometry>
        </mxCell>
        <mxCell id="FiXkTNru_0fniCdlmBQr-3" value="address" style="shape=partialRectangle;connectable=0;fillColor=none;top=0;left=0;bottom=0;right=0;align=left;spacingLeft=6;overflow=hidden;" vertex="1" parent="FiXkTNru_0fniCdlmBQr-1">
          <mxGeometry x="40.00000000000023" width="139.99999999999977" height="32" as="geometry">
            <mxRectangle width="139.99999999999977" height="32" as="alternateBounds" />
          </mxGeometry>
        </mxCell>
        <mxCell id="VqIRqjXax7T4qneetQDV-269" value="" style="shape=tableRow;horizontal=0;startSize=0;swimlaneHead=0;swimlaneBody=0;fillColor=none;collapsible=0;dropTarget=0;points=[[0,0.5],[1,0.5]];portConstraint=eastwest;top=0;left=0;right=0;bottom=0;" parent="VqIRqjXax7T4qneetQDV-250" vertex="1">
          <mxGeometry y="257" width="180" height="32" as="geometry" />
        </mxCell>
        <mxCell id="VqIRqjXax7T4qneetQDV-270" value="text?" style="shape=partialRectangle;connectable=0;fillColor=none;top=0;left=0;bottom=0;right=0;editable=1;overflow=hidden;" parent="VqIRqjXax7T4qneetQDV-269" vertex="1">
          <mxGeometry width="40.00000000000023" height="32" as="geometry">
            <mxRectangle width="40.00000000000023" height="32" as="alternateBounds" />
          </mxGeometry>
        </mxCell>
        <mxCell id="VqIRqjXax7T4qneetQDV-271" value="phone" style="shape=partialRectangle;connectable=0;fillColor=none;top=0;left=0;bottom=0;right=0;align=left;spacingLeft=6;overflow=hidden;" parent="VqIRqjXax7T4qneetQDV-269" vertex="1">
          <mxGeometry x="40.00000000000023" width="139.99999999999977" height="32" as="geometry">
            <mxRectangle width="139.99999999999977" height="32" as="alternateBounds" />
          </mxGeometry>
        </mxCell>
        <mxCell id="VqIRqjXax7T4qneetQDV-272" value="" style="shape=tableRow;horizontal=0;startSize=0;swimlaneHead=0;swimlaneBody=0;fillColor=none;collapsible=0;dropTarget=0;points=[[0,0.5],[1,0.5]];portConstraint=eastwest;top=0;left=0;right=0;bottom=0;" parent="VqIRqjXax7T4qneetQDV-250" vertex="1">
          <mxGeometry y="289" width="180" height="32" as="geometry" />
        </mxCell>
        <mxCell id="VqIRqjXax7T4qneetQDV-273" value="date" style="shape=partialRectangle;connectable=0;fillColor=none;top=0;left=0;bottom=0;right=0;editable=1;overflow=hidden;" parent="VqIRqjXax7T4qneetQDV-272" vertex="1">
          <mxGeometry width="40.00000000000023" height="32" as="geometry">
            <mxRectangle width="40.00000000000023" height="32" as="alternateBounds" />
          </mxGeometry>
        </mxCell>
        <mxCell id="VqIRqjXax7T4qneetQDV-274" value="date_of_birth" style="shape=partialRectangle;connectable=0;fillColor=none;top=0;left=0;bottom=0;right=0;align=left;spacingLeft=6;overflow=hidden;" parent="VqIRqjXax7T4qneetQDV-272" vertex="1">
          <mxGeometry x="40.00000000000023" width="139.99999999999977" height="32" as="geometry">
            <mxRectangle width="139.99999999999977" height="32" as="alternateBounds" />
          </mxGeometry>
        </mxCell>
        <mxCell id="VqIRqjXax7T4qneetQDV-275" value="" style="shape=tableRow;horizontal=0;startSize=0;swimlaneHead=0;swimlaneBody=0;fillColor=none;collapsible=0;dropTarget=0;points=[[0,0.5],[1,0.5]];portConstraint=eastwest;top=0;left=0;right=0;bottom=0;" parent="VqIRqjXax7T4qneetQDV-250" vertex="1">
          <mxGeometry y="321" width="180" height="32" as="geometry" />
        </mxCell>
        <mxCell id="VqIRqjXax7T4qneetQDV-276" value="int2" style="shape=partialRectangle;connectable=0;fillColor=none;top=0;left=0;bottom=0;right=0;editable=1;overflow=hidden;" parent="VqIRqjXax7T4qneetQDV-275" vertex="1">
          <mxGeometry width="40.00000000000023" height="32" as="geometry">
            <mxRectangle width="40.00000000000023" height="32" as="alternateBounds" />
          </mxGeometry>
        </mxCell>
        <mxCell id="VqIRqjXax7T4qneetQDV-277" value="gender" style="shape=partialRectangle;connectable=0;fillColor=none;top=0;left=0;bottom=0;right=0;align=left;spacingLeft=6;overflow=hidden;" parent="VqIRqjXax7T4qneetQDV-275" vertex="1">
          <mxGeometry x="40.00000000000023" width="139.99999999999977" height="32" as="geometry">
            <mxRectangle width="139.99999999999977" height="32" as="alternateBounds" />
          </mxGeometry>
        </mxCell>
        <mxCell id="VqIRqjXax7T4qneetQDV-281" value="" style="shape=tableRow;horizontal=0;startSize=0;swimlaneHead=0;swimlaneBody=0;fillColor=none;collapsible=0;dropTarget=0;points=[[0,0.5],[1,0.5]];portConstraint=eastwest;top=0;left=0;right=0;bottom=0;" parent="VqIRqjXax7T4qneetQDV-250" vertex="1">
          <mxGeometry y="353" width="180" height="32" as="geometry" />
        </mxCell>
        <mxCell id="VqIRqjXax7T4qneetQDV-282" value="time8" style="shape=partialRectangle;connectable=0;fillColor=none;top=0;left=0;bottom=0;right=0;editable=1;overflow=hidden;" parent="VqIRqjXax7T4qneetQDV-281" vertex="1">
          <mxGeometry width="40.00000000000023" height="32" as="geometry">
            <mxRectangle width="40.00000000000023" height="32" as="alternateBounds" />
          </mxGeometry>
        </mxCell>
        <mxCell id="VqIRqjXax7T4qneetQDV-283" value="created_datetime_utc" style="shape=partialRectangle;connectable=0;fillColor=none;top=0;left=0;bottom=0;right=0;align=left;spacingLeft=6;overflow=hidden;" parent="VqIRqjXax7T4qneetQDV-281" vertex="1">
          <mxGeometry x="40.00000000000023" width="139.99999999999977" height="32" as="geometry">
            <mxRectangle width="139.99999999999977" height="32" as="alternateBounds" />
          </mxGeometry>
        </mxCell>
        <mxCell id="VqIRqjXax7T4qneetQDV-284" value="" style="shape=tableRow;horizontal=0;startSize=0;swimlaneHead=0;swimlaneBody=0;fillColor=none;collapsible=0;dropTarget=0;points=[[0,0.5],[1,0.5]];portConstraint=eastwest;top=0;left=0;right=0;bottom=0;" parent="VqIRqjXax7T4qneetQDV-250" vertex="1">
          <mxGeometry y="385" width="180" height="32" as="geometry" />
        </mxCell>
        <mxCell id="VqIRqjXax7T4qneetQDV-285" value="time8" style="shape=partialRectangle;connectable=0;fillColor=none;top=0;left=0;bottom=0;right=0;editable=1;overflow=hidden;" parent="VqIRqjXax7T4qneetQDV-284" vertex="1">
          <mxGeometry width="40.00000000000023" height="32" as="geometry">
            <mxRectangle width="40.00000000000023" height="32" as="alternateBounds" />
          </mxGeometry>
        </mxCell>
        <mxCell id="VqIRqjXax7T4qneetQDV-286" value="updated_datetime_utc" style="shape=partialRectangle;connectable=0;fillColor=none;top=0;left=0;bottom=0;right=0;align=left;spacingLeft=6;overflow=hidden;" parent="VqIRqjXax7T4qneetQDV-284" vertex="1">
          <mxGeometry x="40.00000000000023" width="139.99999999999977" height="32" as="geometry">
            <mxRectangle width="139.99999999999977" height="32" as="alternateBounds" />
          </mxGeometry>
        </mxCell>
        <mxCell id="VqIRqjXax7T4qneetQDV-302" value="" style="shape=tableRow;horizontal=0;startSize=0;swimlaneHead=0;swimlaneBody=0;fillColor=none;collapsible=0;dropTarget=0;points=[[0,0.5],[1,0.5]];portConstraint=eastwest;top=0;left=0;right=0;bottom=0;" parent="VqIRqjXax7T4qneetQDV-250" vertex="1">
          <mxGeometry y="417" width="180" height="32" as="geometry" />
        </mxCell>
        <mxCell id="VqIRqjXax7T4qneetQDV-303" value="bool" style="shape=partialRectangle;connectable=0;fillColor=none;top=0;left=0;bottom=0;right=0;editable=1;overflow=hidden;" parent="VqIRqjXax7T4qneetQDV-302" vertex="1">
          <mxGeometry width="40.00000000000023" height="32" as="geometry">
            <mxRectangle width="40.00000000000023" height="32" as="alternateBounds" />
          </mxGeometry>
        </mxCell>
        <mxCell id="VqIRqjXax7T4qneetQDV-304" value="active" style="shape=partialRectangle;connectable=0;fillColor=none;top=0;left=0;bottom=0;right=0;align=left;spacingLeft=6;overflow=hidden;" parent="VqIRqjXax7T4qneetQDV-302" vertex="1">
          <mxGeometry x="40.00000000000023" width="139.99999999999977" height="32" as="geometry">
            <mxRectangle width="139.99999999999977" height="32" as="alternateBounds" />
          </mxGeometry>
        </mxCell>
        <mxCell id="FiXkTNru_0fniCdlmBQr-310" value="tbl_account" style="shape=table;startSize=30;container=1;collapsible=1;childLayout=tableLayout;fixedRows=1;rowLines=0;fontStyle=1;align=center;resizeLast=1;fillColor=#6a00ff;strokeColor=#3700CC;rounded=1;shadow=0;swimlaneLine=1;sketch=0;columnLines=1;fontColor=#ffffff;" vertex="1" parent="1">
          <mxGeometry x="160" y="360" width="180" height="352" as="geometry" />
        </mxCell>
        <mxCell id="FiXkTNru_0fniCdlmBQr-311" value="" style="shape=tableRow;horizontal=0;startSize=0;swimlaneHead=0;swimlaneBody=0;fillColor=none;collapsible=0;dropTarget=0;points=[[0,0.5],[1,0.5]];portConstraint=eastwest;top=0;left=0;right=0;bottom=1;" vertex="1" parent="FiXkTNru_0fniCdlmBQr-310">
          <mxGeometry y="30" width="180" height="33" as="geometry" />
        </mxCell>
        <mxCell id="FiXkTNru_0fniCdlmBQr-312" value="PK" style="shape=partialRectangle;connectable=0;fillColor=none;top=0;left=0;bottom=0;right=0;fontStyle=1;overflow=hidden;" vertex="1" parent="FiXkTNru_0fniCdlmBQr-311">
          <mxGeometry width="40.00000000000023" height="33" as="geometry">
            <mxRectangle width="40.00000000000023" height="33" as="alternateBounds" />
          </mxGeometry>
        </mxCell>
        <mxCell id="FiXkTNru_0fniCdlmBQr-313" value="id" style="shape=partialRectangle;connectable=0;fillColor=none;top=0;left=0;bottom=0;right=0;align=left;spacingLeft=6;fontStyle=5;overflow=hidden;" vertex="1" parent="FiXkTNru_0fniCdlmBQr-311">
          <mxGeometry x="40.00000000000023" width="139.99999999999977" height="33" as="geometry">
            <mxRectangle width="139.99999999999977" height="33" as="alternateBounds" />
          </mxGeometry>
        </mxCell>
        <mxCell id="FiXkTNru_0fniCdlmBQr-314" value="" style="shape=tableRow;horizontal=0;startSize=0;swimlaneHead=0;swimlaneBody=0;fillColor=none;collapsible=0;dropTarget=0;points=[[0,0.5],[1,0.5]];portConstraint=eastwest;top=0;left=0;right=0;bottom=0;" vertex="1" parent="FiXkTNru_0fniCdlmBQr-310">
          <mxGeometry y="63" width="180" height="32" as="geometry" />
        </mxCell>
        <mxCell id="FiXkTNru_0fniCdlmBQr-315" value="text" style="shape=partialRectangle;connectable=0;fillColor=none;top=0;left=0;bottom=0;right=0;editable=1;overflow=hidden;" vertex="1" parent="FiXkTNru_0fniCdlmBQr-314">
          <mxGeometry width="40.00000000000023" height="32" as="geometry">
            <mxRectangle width="40.00000000000023" height="32" as="alternateBounds" />
          </mxGeometry>
        </mxCell>
        <mxCell id="FiXkTNru_0fniCdlmBQr-316" value="user_name" style="shape=partialRectangle;connectable=0;fillColor=none;top=0;left=0;bottom=0;right=0;align=left;spacingLeft=6;overflow=hidden;" vertex="1" parent="FiXkTNru_0fniCdlmBQr-314">
          <mxGeometry x="40.00000000000023" width="139.99999999999977" height="32" as="geometry">
            <mxRectangle width="139.99999999999977" height="32" as="alternateBounds" />
          </mxGeometry>
        </mxCell>
        <mxCell id="FiXkTNru_0fniCdlmBQr-317" value="" style="shape=tableRow;horizontal=0;startSize=0;swimlaneHead=0;swimlaneBody=0;fillColor=none;collapsible=0;dropTarget=0;points=[[0,0.5],[1,0.5]];portConstraint=eastwest;top=0;left=0;right=0;bottom=0;" vertex="1" parent="FiXkTNru_0fniCdlmBQr-310">
          <mxGeometry y="95" width="180" height="33" as="geometry" />
        </mxCell>
        <mxCell id="FiXkTNru_0fniCdlmBQr-318" value="text" style="shape=partialRectangle;connectable=0;fillColor=none;top=0;left=0;bottom=0;right=0;editable=1;overflow=hidden;" vertex="1" parent="FiXkTNru_0fniCdlmBQr-317">
          <mxGeometry width="40.00000000000023" height="33" as="geometry">
            <mxRectangle width="40.00000000000023" height="33" as="alternateBounds" />
          </mxGeometry>
        </mxCell>
        <mxCell id="FiXkTNru_0fniCdlmBQr-319" value="password" style="shape=partialRectangle;connectable=0;fillColor=none;top=0;left=0;bottom=0;right=0;align=left;spacingLeft=6;overflow=hidden;" vertex="1" parent="FiXkTNru_0fniCdlmBQr-317">
          <mxGeometry x="40.00000000000023" width="139.99999999999977" height="33" as="geometry">
            <mxRectangle width="139.99999999999977" height="33" as="alternateBounds" />
          </mxGeometry>
        </mxCell>
        <mxCell id="FiXkTNru_0fniCdlmBQr-320" value="" style="shape=tableRow;horizontal=0;startSize=0;swimlaneHead=0;swimlaneBody=0;fillColor=none;collapsible=0;dropTarget=0;points=[[0,0.5],[1,0.5]];portConstraint=eastwest;top=0;left=0;right=0;bottom=0;" vertex="1" parent="FiXkTNru_0fniCdlmBQr-310">
          <mxGeometry y="128" width="180" height="32" as="geometry" />
        </mxCell>
        <mxCell id="FiXkTNru_0fniCdlmBQr-321" value="text" style="shape=partialRectangle;connectable=0;fillColor=none;top=0;left=0;bottom=0;right=0;editable=1;overflow=hidden;" vertex="1" parent="FiXkTNru_0fniCdlmBQr-320">
          <mxGeometry width="40.00000000000023" height="32" as="geometry">
            <mxRectangle width="40.00000000000023" height="32" as="alternateBounds" />
          </mxGeometry>
        </mxCell>
        <mxCell id="FiXkTNru_0fniCdlmBQr-322" value="name" style="shape=partialRectangle;connectable=0;fillColor=none;top=0;left=0;bottom=0;right=0;align=left;spacingLeft=6;overflow=hidden;" vertex="1" parent="FiXkTNru_0fniCdlmBQr-320">
          <mxGeometry x="40.00000000000023" width="139.99999999999977" height="32" as="geometry">
            <mxRectangle width="139.99999999999977" height="32" as="alternateBounds" />
          </mxGeometry>
        </mxCell>
        <mxCell id="FiXkTNru_0fniCdlmBQr-323" value="" style="shape=tableRow;horizontal=0;startSize=0;swimlaneHead=0;swimlaneBody=0;fillColor=none;collapsible=0;dropTarget=0;points=[[0,0.5],[1,0.5]];portConstraint=eastwest;top=0;left=0;right=0;bottom=0;" vertex="1" parent="FiXkTNru_0fniCdlmBQr-310">
          <mxGeometry y="160" width="180" height="32" as="geometry" />
        </mxCell>
        <mxCell id="FiXkTNru_0fniCdlmBQr-324" value="text?" style="shape=partialRectangle;connectable=0;fillColor=none;top=0;left=0;bottom=0;right=0;editable=1;overflow=hidden;" vertex="1" parent="FiXkTNru_0fniCdlmBQr-323">
          <mxGeometry width="40.00000000000023" height="32" as="geometry">
            <mxRectangle width="40.00000000000023" height="32" as="alternateBounds" />
          </mxGeometry>
        </mxCell>
        <mxCell id="FiXkTNru_0fniCdlmBQr-325" value="avatar" style="shape=partialRectangle;connectable=0;fillColor=none;top=0;left=0;bottom=0;right=0;align=left;spacingLeft=6;overflow=hidden;" vertex="1" parent="FiXkTNru_0fniCdlmBQr-323">
          <mxGeometry x="40.00000000000023" width="139.99999999999977" height="32" as="geometry">
            <mxRectangle width="139.99999999999977" height="32" as="alternateBounds" />
          </mxGeometry>
        </mxCell>
        <mxCell id="FiXkTNru_0fniCdlmBQr-326" value="" style="shape=tableRow;horizontal=0;startSize=0;swimlaneHead=0;swimlaneBody=0;fillColor=none;collapsible=0;dropTarget=0;points=[[0,0.5],[1,0.5]];portConstraint=eastwest;top=0;left=0;right=0;bottom=0;" vertex="1" parent="FiXkTNru_0fniCdlmBQr-310">
          <mxGeometry y="192" width="180" height="32" as="geometry" />
        </mxCell>
        <mxCell id="FiXkTNru_0fniCdlmBQr-327" value="text?" style="shape=partialRectangle;connectable=0;fillColor=none;top=0;left=0;bottom=0;right=0;editable=1;overflow=hidden;" vertex="1" parent="FiXkTNru_0fniCdlmBQr-326">
          <mxGeometry width="40.00000000000023" height="32" as="geometry">
            <mxRectangle width="40.00000000000023" height="32" as="alternateBounds" />
          </mxGeometry>
        </mxCell>
        <mxCell id="FiXkTNru_0fniCdlmBQr-328" value="email" style="shape=partialRectangle;connectable=0;fillColor=none;top=0;left=0;bottom=0;right=0;align=left;spacingLeft=6;overflow=hidden;" vertex="1" parent="FiXkTNru_0fniCdlmBQr-326">
          <mxGeometry x="40.00000000000023" width="139.99999999999977" height="32" as="geometry">
            <mxRectangle width="139.99999999999977" height="32" as="alternateBounds" />
          </mxGeometry>
        </mxCell>
        <mxCell id="FiXkTNru_0fniCdlmBQr-329" value="" style="shape=tableRow;horizontal=0;startSize=0;swimlaneHead=0;swimlaneBody=0;fillColor=none;collapsible=0;dropTarget=0;points=[[0,0.5],[1,0.5]];portConstraint=eastwest;top=0;left=0;right=0;bottom=0;" vertex="1" parent="FiXkTNru_0fniCdlmBQr-310">
          <mxGeometry y="224" width="180" height="32" as="geometry" />
        </mxCell>
        <mxCell id="FiXkTNru_0fniCdlmBQr-330" value="json" style="shape=partialRectangle;connectable=0;fillColor=none;top=0;left=0;bottom=0;right=0;editable=1;overflow=hidden;" vertex="1" parent="FiXkTNru_0fniCdlmBQr-329">
          <mxGeometry width="40.00000000000023" height="32" as="geometry">
            <mxRectangle width="40.00000000000023" height="32" as="alternateBounds" />
          </mxGeometry>
        </mxCell>
        <mxCell id="FiXkTNru_0fniCdlmBQr-331" value="system_roles" style="shape=partialRectangle;connectable=0;fillColor=none;top=0;left=0;bottom=0;right=0;align=left;spacingLeft=6;overflow=hidden;" vertex="1" parent="FiXkTNru_0fniCdlmBQr-329">
          <mxGeometry x="40.00000000000023" width="139.99999999999977" height="32" as="geometry">
            <mxRectangle width="139.99999999999977" height="32" as="alternateBounds" />
          </mxGeometry>
        </mxCell>
        <mxCell id="FiXkTNru_0fniCdlmBQr-335" value="" style="shape=tableRow;horizontal=0;startSize=0;swimlaneHead=0;swimlaneBody=0;fillColor=none;collapsible=0;dropTarget=0;points=[[0,0.5],[1,0.5]];portConstraint=eastwest;top=0;left=0;right=0;bottom=0;" vertex="1" parent="FiXkTNru_0fniCdlmBQr-310">
          <mxGeometry y="256" width="180" height="32" as="geometry" />
        </mxCell>
        <mxCell id="FiXkTNru_0fniCdlmBQr-336" value="time8" style="shape=partialRectangle;connectable=0;fillColor=none;top=0;left=0;bottom=0;right=0;editable=1;overflow=hidden;" vertex="1" parent="FiXkTNru_0fniCdlmBQr-335">
          <mxGeometry width="40.00000000000023" height="32" as="geometry">
            <mxRectangle width="40.00000000000023" height="32" as="alternateBounds" />
          </mxGeometry>
        </mxCell>
        <mxCell id="FiXkTNru_0fniCdlmBQr-337" value="created_datetime_utc" style="shape=partialRectangle;connectable=0;fillColor=none;top=0;left=0;bottom=0;right=0;align=left;spacingLeft=6;overflow=hidden;" vertex="1" parent="FiXkTNru_0fniCdlmBQr-335">
          <mxGeometry x="40.00000000000023" width="139.99999999999977" height="32" as="geometry">
            <mxRectangle width="139.99999999999977" height="32" as="alternateBounds" />
          </mxGeometry>
        </mxCell>
        <mxCell id="FiXkTNru_0fniCdlmBQr-338" value="" style="shape=tableRow;horizontal=0;startSize=0;swimlaneHead=0;swimlaneBody=0;fillColor=none;collapsible=0;dropTarget=0;points=[[0,0.5],[1,0.5]];portConstraint=eastwest;top=0;left=0;right=0;bottom=0;" vertex="1" parent="FiXkTNru_0fniCdlmBQr-310">
          <mxGeometry y="288" width="180" height="32" as="geometry" />
        </mxCell>
        <mxCell id="FiXkTNru_0fniCdlmBQr-339" value="time8" style="shape=partialRectangle;connectable=0;fillColor=none;top=0;left=0;bottom=0;right=0;editable=1;overflow=hidden;" vertex="1" parent="FiXkTNru_0fniCdlmBQr-338">
          <mxGeometry width="40.00000000000023" height="32" as="geometry">
            <mxRectangle width="40.00000000000023" height="32" as="alternateBounds" />
          </mxGeometry>
        </mxCell>
        <mxCell id="FiXkTNru_0fniCdlmBQr-340" value="updated_datetime_utc" style="shape=partialRectangle;connectable=0;fillColor=none;top=0;left=0;bottom=0;right=0;align=left;spacingLeft=6;overflow=hidden;" vertex="1" parent="FiXkTNru_0fniCdlmBQr-338">
          <mxGeometry x="40.00000000000023" width="139.99999999999977" height="32" as="geometry">
            <mxRectangle width="139.99999999999977" height="32" as="alternateBounds" />
          </mxGeometry>
        </mxCell>
        <mxCell id="FiXkTNru_0fniCdlmBQr-341" value="" style="shape=tableRow;horizontal=0;startSize=0;swimlaneHead=0;swimlaneBody=0;fillColor=none;collapsible=0;dropTarget=0;points=[[0,0.5],[1,0.5]];portConstraint=eastwest;top=0;left=0;right=0;bottom=0;" vertex="1" parent="FiXkTNru_0fniCdlmBQr-310">
          <mxGeometry y="320" width="180" height="32" as="geometry" />
        </mxCell>
        <mxCell id="FiXkTNru_0fniCdlmBQr-342" value="bool" style="shape=partialRectangle;connectable=0;fillColor=none;top=0;left=0;bottom=0;right=0;editable=1;overflow=hidden;" vertex="1" parent="FiXkTNru_0fniCdlmBQr-341">
          <mxGeometry width="40.00000000000023" height="32" as="geometry">
            <mxRectangle width="40.00000000000023" height="32" as="alternateBounds" />
          </mxGeometry>
        </mxCell>
        <mxCell id="FiXkTNru_0fniCdlmBQr-343" value="active" style="shape=partialRectangle;connectable=0;fillColor=none;top=0;left=0;bottom=0;right=0;align=left;spacingLeft=6;overflow=hidden;" vertex="1" parent="FiXkTNru_0fniCdlmBQr-341">
          <mxGeometry x="40.00000000000023" width="139.99999999999977" height="32" as="geometry">
            <mxRectangle width="139.99999999999977" height="32" as="alternateBounds" />
          </mxGeometry>
        </mxCell>
        <mxCell id="FiXkTNru_0fniCdlmBQr-350" value="tbl_token" style="shape=table;startSize=30;container=1;collapsible=1;childLayout=tableLayout;fixedRows=1;rowLines=0;fontStyle=1;align=center;resizeLast=1;fillColor=#6a00ff;strokeColor=#3700CC;rounded=1;shadow=0;swimlaneLine=1;sketch=0;columnLines=1;fontColor=#ffffff;" vertex="1" parent="1">
          <mxGeometry x="160" y="-41" width="180" height="321" as="geometry" />
        </mxCell>
        <mxCell id="FiXkTNru_0fniCdlmBQr-351" value="" style="shape=tableRow;horizontal=0;startSize=0;swimlaneHead=0;swimlaneBody=0;fillColor=none;collapsible=0;dropTarget=0;points=[[0,0.5],[1,0.5]];portConstraint=eastwest;top=0;left=0;right=0;bottom=1;" vertex="1" parent="FiXkTNru_0fniCdlmBQr-350">
          <mxGeometry y="30" width="180" height="33" as="geometry" />
        </mxCell>
        <mxCell id="FiXkTNru_0fniCdlmBQr-352" value="PK" style="shape=partialRectangle;connectable=0;fillColor=none;top=0;left=0;bottom=0;right=0;fontStyle=1;overflow=hidden;" vertex="1" parent="FiXkTNru_0fniCdlmBQr-351">
          <mxGeometry width="40.00000000000023" height="33" as="geometry">
            <mxRectangle width="40.00000000000023" height="33" as="alternateBounds" />
          </mxGeometry>
        </mxCell>
        <mxCell id="FiXkTNru_0fniCdlmBQr-353" value="id" style="shape=partialRectangle;connectable=0;fillColor=none;top=0;left=0;bottom=0;right=0;align=left;spacingLeft=6;fontStyle=5;overflow=hidden;" vertex="1" parent="FiXkTNru_0fniCdlmBQr-351">
          <mxGeometry x="40.00000000000023" width="139.99999999999977" height="33" as="geometry">
            <mxRectangle width="139.99999999999977" height="33" as="alternateBounds" />
          </mxGeometry>
        </mxCell>
        <mxCell id="FiXkTNru_0fniCdlmBQr-381" value="" style="shape=tableRow;horizontal=0;startSize=0;swimlaneHead=0;swimlaneBody=0;fillColor=none;collapsible=0;dropTarget=0;points=[[0,0.5],[1,0.5]];portConstraint=eastwest;top=0;left=0;right=0;bottom=1;" vertex="1" parent="FiXkTNru_0fniCdlmBQr-350">
          <mxGeometry y="63" width="180" height="33" as="geometry" />
        </mxCell>
        <mxCell id="FiXkTNru_0fniCdlmBQr-382" value="FK" style="shape=partialRectangle;connectable=0;fillColor=none;top=0;left=0;bottom=0;right=0;fontStyle=1;overflow=hidden;" vertex="1" parent="FiXkTNru_0fniCdlmBQr-381">
          <mxGeometry width="40.00000000000023" height="33" as="geometry">
            <mxRectangle width="40.00000000000023" height="33" as="alternateBounds" />
          </mxGeometry>
        </mxCell>
        <mxCell id="FiXkTNru_0fniCdlmBQr-383" value="account_id" style="shape=partialRectangle;connectable=0;fillColor=none;top=0;left=0;bottom=0;right=0;align=left;spacingLeft=6;fontStyle=5;overflow=hidden;" vertex="1" parent="FiXkTNru_0fniCdlmBQr-381">
          <mxGeometry x="40.00000000000023" width="139.99999999999977" height="33" as="geometry">
            <mxRectangle width="139.99999999999977" height="33" as="alternateBounds" />
          </mxGeometry>
        </mxCell>
        <mxCell id="FiXkTNru_0fniCdlmBQr-354" value="" style="shape=tableRow;horizontal=0;startSize=0;swimlaneHead=0;swimlaneBody=0;fillColor=none;collapsible=0;dropTarget=0;points=[[0,0.5],[1,0.5]];portConstraint=eastwest;top=0;left=0;right=0;bottom=0;" vertex="1" parent="FiXkTNru_0fniCdlmBQr-350">
          <mxGeometry y="96" width="180" height="32" as="geometry" />
        </mxCell>
        <mxCell id="FiXkTNru_0fniCdlmBQr-355" value="text" style="shape=partialRectangle;connectable=0;fillColor=none;top=0;left=0;bottom=0;right=0;editable=1;overflow=hidden;" vertex="1" parent="FiXkTNru_0fniCdlmBQr-354">
          <mxGeometry width="40.00000000000023" height="32" as="geometry">
            <mxRectangle width="40.00000000000023" height="32" as="alternateBounds" />
          </mxGeometry>
        </mxCell>
        <mxCell id="FiXkTNru_0fniCdlmBQr-356" value="refresh_token" style="shape=partialRectangle;connectable=0;fillColor=none;top=0;left=0;bottom=0;right=0;align=left;spacingLeft=6;overflow=hidden;" vertex="1" parent="FiXkTNru_0fniCdlmBQr-354">
          <mxGeometry x="40.00000000000023" width="139.99999999999977" height="32" as="geometry">
            <mxRectangle width="139.99999999999977" height="32" as="alternateBounds" />
          </mxGeometry>
        </mxCell>
        <mxCell id="FiXkTNru_0fniCdlmBQr-384" value="" style="shape=tableRow;horizontal=0;startSize=0;swimlaneHead=0;swimlaneBody=0;fillColor=none;collapsible=0;dropTarget=0;points=[[0,0.5],[1,0.5]];portConstraint=eastwest;top=0;left=0;right=0;bottom=0;" vertex="1" parent="FiXkTNru_0fniCdlmBQr-350">
          <mxGeometry y="128" width="180" height="32" as="geometry" />
        </mxCell>
        <mxCell id="FiXkTNru_0fniCdlmBQr-385" value="bool" style="shape=partialRectangle;connectable=0;fillColor=none;top=0;left=0;bottom=0;right=0;editable=1;overflow=hidden;" vertex="1" parent="FiXkTNru_0fniCdlmBQr-384">
          <mxGeometry width="40.00000000000023" height="32" as="geometry">
            <mxRectangle width="40.00000000000023" height="32" as="alternateBounds" />
          </mxGeometry>
        </mxCell>
        <mxCell id="FiXkTNru_0fniCdlmBQr-386" value="is_used" style="shape=partialRectangle;connectable=0;fillColor=none;top=0;left=0;bottom=0;right=0;align=left;spacingLeft=6;overflow=hidden;" vertex="1" parent="FiXkTNru_0fniCdlmBQr-384">
          <mxGeometry x="40.00000000000023" width="139.99999999999977" height="32" as="geometry">
            <mxRectangle width="139.99999999999977" height="32" as="alternateBounds" />
          </mxGeometry>
        </mxCell>
        <mxCell id="FiXkTNru_0fniCdlmBQr-357" value="" style="shape=tableRow;horizontal=0;startSize=0;swimlaneHead=0;swimlaneBody=0;fillColor=none;collapsible=0;dropTarget=0;points=[[0,0.5],[1,0.5]];portConstraint=eastwest;top=0;left=0;right=0;bottom=0;" vertex="1" parent="FiXkTNru_0fniCdlmBQr-350">
          <mxGeometry y="160" width="180" height="33" as="geometry" />
        </mxCell>
        <mxCell id="FiXkTNru_0fniCdlmBQr-358" value="time8" style="shape=partialRectangle;connectable=0;fillColor=none;top=0;left=0;bottom=0;right=0;editable=1;overflow=hidden;" vertex="1" parent="FiXkTNru_0fniCdlmBQr-357">
          <mxGeometry width="40.00000000000023" height="33" as="geometry">
            <mxRectangle width="40.00000000000023" height="33" as="alternateBounds" />
          </mxGeometry>
        </mxCell>
        <mxCell id="FiXkTNru_0fniCdlmBQr-359" value="expired_datetime_utc" style="shape=partialRectangle;connectable=0;fillColor=none;top=0;left=0;bottom=0;right=0;align=left;spacingLeft=6;overflow=hidden;" vertex="1" parent="FiXkTNru_0fniCdlmBQr-357">
          <mxGeometry x="40.00000000000023" width="139.99999999999977" height="33" as="geometry">
            <mxRectangle width="139.99999999999977" height="33" as="alternateBounds" />
          </mxGeometry>
        </mxCell>
        <mxCell id="FiXkTNru_0fniCdlmBQr-360" value="" style="shape=tableRow;horizontal=0;startSize=0;swimlaneHead=0;swimlaneBody=0;fillColor=none;collapsible=0;dropTarget=0;points=[[0,0.5],[1,0.5]];portConstraint=eastwest;top=0;left=0;right=0;bottom=0;" vertex="1" parent="FiXkTNru_0fniCdlmBQr-350">
          <mxGeometry y="193" width="180" height="32" as="geometry" />
        </mxCell>
        <mxCell id="FiXkTNru_0fniCdlmBQr-361" value="text?" style="shape=partialRectangle;connectable=0;fillColor=none;top=0;left=0;bottom=0;right=0;editable=1;overflow=hidden;" vertex="1" parent="FiXkTNru_0fniCdlmBQr-360">
          <mxGeometry width="40.00000000000023" height="32" as="geometry">
            <mxRectangle width="40.00000000000023" height="32" as="alternateBounds" />
          </mxGeometry>
        </mxCell>
        <mxCell id="FiXkTNru_0fniCdlmBQr-362" value="user_agent" style="shape=partialRectangle;connectable=0;fillColor=none;top=0;left=0;bottom=0;right=0;align=left;spacingLeft=6;overflow=hidden;" vertex="1" parent="FiXkTNru_0fniCdlmBQr-360">
          <mxGeometry x="40.00000000000023" width="139.99999999999977" height="32" as="geometry">
            <mxRectangle width="139.99999999999977" height="32" as="alternateBounds" />
          </mxGeometry>
        </mxCell>
        <mxCell id="FiXkTNru_0fniCdlmBQr-372" value="" style="shape=tableRow;horizontal=0;startSize=0;swimlaneHead=0;swimlaneBody=0;fillColor=none;collapsible=0;dropTarget=0;points=[[0,0.5],[1,0.5]];portConstraint=eastwest;top=0;left=0;right=0;bottom=0;" vertex="1" parent="FiXkTNru_0fniCdlmBQr-350">
          <mxGeometry y="225" width="180" height="32" as="geometry" />
        </mxCell>
        <mxCell id="FiXkTNru_0fniCdlmBQr-373" value="time8" style="shape=partialRectangle;connectable=0;fillColor=none;top=0;left=0;bottom=0;right=0;editable=1;overflow=hidden;" vertex="1" parent="FiXkTNru_0fniCdlmBQr-372">
          <mxGeometry width="40.00000000000023" height="32" as="geometry">
            <mxRectangle width="40.00000000000023" height="32" as="alternateBounds" />
          </mxGeometry>
        </mxCell>
        <mxCell id="FiXkTNru_0fniCdlmBQr-374" value="created_datetime_utc" style="shape=partialRectangle;connectable=0;fillColor=none;top=0;left=0;bottom=0;right=0;align=left;spacingLeft=6;overflow=hidden;" vertex="1" parent="FiXkTNru_0fniCdlmBQr-372">
          <mxGeometry x="40.00000000000023" width="139.99999999999977" height="32" as="geometry">
            <mxRectangle width="139.99999999999977" height="32" as="alternateBounds" />
          </mxGeometry>
        </mxCell>
        <mxCell id="FiXkTNru_0fniCdlmBQr-375" value="" style="shape=tableRow;horizontal=0;startSize=0;swimlaneHead=0;swimlaneBody=0;fillColor=none;collapsible=0;dropTarget=0;points=[[0,0.5],[1,0.5]];portConstraint=eastwest;top=0;left=0;right=0;bottom=0;" vertex="1" parent="FiXkTNru_0fniCdlmBQr-350">
          <mxGeometry y="257" width="180" height="32" as="geometry" />
        </mxCell>
        <mxCell id="FiXkTNru_0fniCdlmBQr-376" value="time8" style="shape=partialRectangle;connectable=0;fillColor=none;top=0;left=0;bottom=0;right=0;editable=1;overflow=hidden;" vertex="1" parent="FiXkTNru_0fniCdlmBQr-375">
          <mxGeometry width="40.00000000000023" height="32" as="geometry">
            <mxRectangle width="40.00000000000023" height="32" as="alternateBounds" />
          </mxGeometry>
        </mxCell>
        <mxCell id="FiXkTNru_0fniCdlmBQr-377" value="updated_datetime_utc" style="shape=partialRectangle;connectable=0;fillColor=none;top=0;left=0;bottom=0;right=0;align=left;spacingLeft=6;overflow=hidden;" vertex="1" parent="FiXkTNru_0fniCdlmBQr-375">
          <mxGeometry x="40.00000000000023" width="139.99999999999977" height="32" as="geometry">
            <mxRectangle width="139.99999999999977" height="32" as="alternateBounds" />
          </mxGeometry>
        </mxCell>
        <mxCell id="FiXkTNru_0fniCdlmBQr-378" value="" style="shape=tableRow;horizontal=0;startSize=0;swimlaneHead=0;swimlaneBody=0;fillColor=none;collapsible=0;dropTarget=0;points=[[0,0.5],[1,0.5]];portConstraint=eastwest;top=0;left=0;right=0;bottom=0;" vertex="1" parent="FiXkTNru_0fniCdlmBQr-350">
          <mxGeometry y="289" width="180" height="32" as="geometry" />
        </mxCell>
        <mxCell id="FiXkTNru_0fniCdlmBQr-379" value="bool" style="shape=partialRectangle;connectable=0;fillColor=none;top=0;left=0;bottom=0;right=0;editable=1;overflow=hidden;" vertex="1" parent="FiXkTNru_0fniCdlmBQr-378">
          <mxGeometry width="40.00000000000023" height="32" as="geometry">
            <mxRectangle width="40.00000000000023" height="32" as="alternateBounds" />
          </mxGeometry>
        </mxCell>
        <mxCell id="FiXkTNru_0fniCdlmBQr-380" value="active" style="shape=partialRectangle;connectable=0;fillColor=none;top=0;left=0;bottom=0;right=0;align=left;spacingLeft=6;overflow=hidden;" vertex="1" parent="FiXkTNru_0fniCdlmBQr-378">
          <mxGeometry x="40.00000000000023" width="139.99999999999977" height="32" as="geometry">
            <mxRectangle width="139.99999999999977" height="32" as="alternateBounds" />
          </mxGeometry>
        </mxCell>
        <mxCell id="FiXkTNru_0fniCdlmBQr-4" value="tbl_social_network" style="shape=table;startSize=30;container=1;collapsible=1;childLayout=tableLayout;fixedRows=1;rowLines=0;fontStyle=1;align=center;resizeLast=1;fillColor=#d5e8d4;strokeColor=#82b366;rounded=1;shadow=0;swimlaneLine=1;sketch=0;columnLines=1;" vertex="1" parent="1">
          <mxGeometry x="440" y="880" width="180" height="290" as="geometry" />
        </mxCell>
        <mxCell id="FiXkTNru_0fniCdlmBQr-5" value="" style="shape=tableRow;horizontal=0;startSize=0;swimlaneHead=0;swimlaneBody=0;fillColor=none;collapsible=0;dropTarget=0;points=[[0,0.5],[1,0.5]];portConstraint=eastwest;top=0;left=0;right=0;bottom=1;" vertex="1" parent="FiXkTNru_0fniCdlmBQr-4">
          <mxGeometry y="30" width="180" height="33" as="geometry" />
        </mxCell>
        <mxCell id="FiXkTNru_0fniCdlmBQr-6" value="PK" style="shape=partialRectangle;connectable=0;fillColor=none;top=0;left=0;bottom=0;right=0;fontStyle=1;overflow=hidden;" vertex="1" parent="FiXkTNru_0fniCdlmBQr-5">
          <mxGeometry width="40.00000000000023" height="33" as="geometry">
            <mxRectangle width="40.00000000000023" height="33" as="alternateBounds" />
          </mxGeometry>
        </mxCell>
        <mxCell id="FiXkTNru_0fniCdlmBQr-7" value="id" style="shape=partialRectangle;connectable=0;fillColor=none;top=0;left=0;bottom=0;right=0;align=left;spacingLeft=6;fontStyle=5;overflow=hidden;" vertex="1" parent="FiXkTNru_0fniCdlmBQr-5">
          <mxGeometry x="40.00000000000023" width="139.99999999999977" height="33" as="geometry">
            <mxRectangle width="139.99999999999977" height="33" as="alternateBounds" />
          </mxGeometry>
        </mxCell>
        <mxCell id="FiXkTNru_0fniCdlmBQr-301" value="" style="shape=tableRow;horizontal=0;startSize=0;swimlaneHead=0;swimlaneBody=0;fillColor=none;collapsible=0;dropTarget=0;points=[[0,0.5],[1,0.5]];portConstraint=eastwest;top=0;left=0;right=0;bottom=1;" vertex="1" parent="FiXkTNru_0fniCdlmBQr-4">
          <mxGeometry y="63" width="180" height="33" as="geometry" />
        </mxCell>
        <mxCell id="FiXkTNru_0fniCdlmBQr-302" value="FK" style="shape=partialRectangle;connectable=0;fillColor=none;top=0;left=0;bottom=0;right=0;fontStyle=1;overflow=hidden;" vertex="1" parent="FiXkTNru_0fniCdlmBQr-301">
          <mxGeometry width="40.00000000000023" height="33" as="geometry">
            <mxRectangle width="40.00000000000023" height="33" as="alternateBounds" />
          </mxGeometry>
        </mxCell>
        <mxCell id="FiXkTNru_0fniCdlmBQr-303" value="person_id" style="shape=partialRectangle;connectable=0;fillColor=none;top=0;left=0;bottom=0;right=0;align=left;spacingLeft=6;fontStyle=5;overflow=hidden;" vertex="1" parent="FiXkTNru_0fniCdlmBQr-301">
          <mxGeometry x="40.00000000000023" width="139.99999999999977" height="33" as="geometry">
            <mxRectangle width="139.99999999999977" height="33" as="alternateBounds" />
          </mxGeometry>
        </mxCell>
        <mxCell id="FiXkTNru_0fniCdlmBQr-8" value="" style="shape=tableRow;horizontal=0;startSize=0;swimlaneHead=0;swimlaneBody=0;fillColor=none;collapsible=0;dropTarget=0;points=[[0,0.5],[1,0.5]];portConstraint=eastwest;top=0;left=0;right=0;bottom=0;" vertex="1" parent="FiXkTNru_0fniCdlmBQr-4">
          <mxGeometry y="96" width="180" height="32" as="geometry" />
        </mxCell>
        <mxCell id="FiXkTNru_0fniCdlmBQr-9" value="int2" style="shape=partialRectangle;connectable=0;fillColor=none;top=0;left=0;bottom=0;right=0;editable=1;overflow=hidden;" vertex="1" parent="FiXkTNru_0fniCdlmBQr-8">
          <mxGeometry width="40.00000000000023" height="32" as="geometry">
            <mxRectangle width="40.00000000000023" height="32" as="alternateBounds" />
          </mxGeometry>
        </mxCell>
        <mxCell id="FiXkTNru_0fniCdlmBQr-10" value="code" style="shape=partialRectangle;connectable=0;fillColor=none;top=0;left=0;bottom=0;right=0;align=left;spacingLeft=6;overflow=hidden;" vertex="1" parent="FiXkTNru_0fniCdlmBQr-8">
          <mxGeometry x="40.00000000000023" width="139.99999999999977" height="32" as="geometry">
            <mxRectangle width="139.99999999999977" height="32" as="alternateBounds" />
          </mxGeometry>
        </mxCell>
        <mxCell id="FiXkTNru_0fniCdlmBQr-11" value="" style="shape=tableRow;horizontal=0;startSize=0;swimlaneHead=0;swimlaneBody=0;fillColor=none;collapsible=0;dropTarget=0;points=[[0,0.5],[1,0.5]];portConstraint=eastwest;top=0;left=0;right=0;bottom=0;" vertex="1" parent="FiXkTNru_0fniCdlmBQr-4">
          <mxGeometry y="128" width="180" height="33" as="geometry" />
        </mxCell>
        <mxCell id="FiXkTNru_0fniCdlmBQr-12" value="text" style="shape=partialRectangle;connectable=0;fillColor=none;top=0;left=0;bottom=0;right=0;editable=1;overflow=hidden;" vertex="1" parent="FiXkTNru_0fniCdlmBQr-11">
          <mxGeometry width="40.00000000000023" height="33" as="geometry">
            <mxRectangle width="40.00000000000023" height="33" as="alternateBounds" />
          </mxGeometry>
        </mxCell>
        <mxCell id="FiXkTNru_0fniCdlmBQr-13" value="value" style="shape=partialRectangle;connectable=0;fillColor=none;top=0;left=0;bottom=0;right=0;align=left;spacingLeft=6;overflow=hidden;" vertex="1" parent="FiXkTNru_0fniCdlmBQr-11">
          <mxGeometry x="40.00000000000023" width="139.99999999999977" height="33" as="geometry">
            <mxRectangle width="139.99999999999977" height="33" as="alternateBounds" />
          </mxGeometry>
        </mxCell>
        <mxCell id="FiXkTNru_0fniCdlmBQr-14" value="" style="shape=tableRow;horizontal=0;startSize=0;swimlaneHead=0;swimlaneBody=0;fillColor=none;collapsible=0;dropTarget=0;points=[[0,0.5],[1,0.5]];portConstraint=eastwest;top=0;left=0;right=0;bottom=0;" vertex="1" parent="FiXkTNru_0fniCdlmBQr-4">
          <mxGeometry y="161" width="180" height="33" as="geometry" />
        </mxCell>
        <mxCell id="FiXkTNru_0fniCdlmBQr-15" value="text?" style="shape=partialRectangle;connectable=0;fillColor=none;top=0;left=0;bottom=0;right=0;editable=1;overflow=hidden;" vertex="1" parent="FiXkTNru_0fniCdlmBQr-14">
          <mxGeometry width="40.00000000000023" height="33" as="geometry">
            <mxRectangle width="40.00000000000023" height="33" as="alternateBounds" />
          </mxGeometry>
        </mxCell>
        <mxCell id="FiXkTNru_0fniCdlmBQr-16" value="icon" style="shape=partialRectangle;connectable=0;fillColor=none;top=0;left=0;bottom=0;right=0;align=left;spacingLeft=6;overflow=hidden;" vertex="1" parent="FiXkTNru_0fniCdlmBQr-14">
          <mxGeometry x="40.00000000000023" width="139.99999999999977" height="33" as="geometry">
            <mxRectangle width="139.99999999999977" height="33" as="alternateBounds" />
          </mxGeometry>
        </mxCell>
        <mxCell id="FiXkTNru_0fniCdlmBQr-35" value="" style="shape=tableRow;horizontal=0;startSize=0;swimlaneHead=0;swimlaneBody=0;fillColor=none;collapsible=0;dropTarget=0;points=[[0,0.5],[1,0.5]];portConstraint=eastwest;top=0;left=0;right=0;bottom=0;" vertex="1" parent="FiXkTNru_0fniCdlmBQr-4">
          <mxGeometry y="194" width="180" height="32" as="geometry" />
        </mxCell>
        <mxCell id="FiXkTNru_0fniCdlmBQr-36" value="time8" style="shape=partialRectangle;connectable=0;fillColor=none;top=0;left=0;bottom=0;right=0;editable=1;overflow=hidden;" vertex="1" parent="FiXkTNru_0fniCdlmBQr-35">
          <mxGeometry width="40.00000000000023" height="32" as="geometry">
            <mxRectangle width="40.00000000000023" height="32" as="alternateBounds" />
          </mxGeometry>
        </mxCell>
        <mxCell id="FiXkTNru_0fniCdlmBQr-37" value="created_datetime_utc" style="shape=partialRectangle;connectable=0;fillColor=none;top=0;left=0;bottom=0;right=0;align=left;spacingLeft=6;overflow=hidden;" vertex="1" parent="FiXkTNru_0fniCdlmBQr-35">
          <mxGeometry x="40.00000000000023" width="139.99999999999977" height="32" as="geometry">
            <mxRectangle width="139.99999999999977" height="32" as="alternateBounds" />
          </mxGeometry>
        </mxCell>
        <mxCell id="FiXkTNru_0fniCdlmBQr-38" value="" style="shape=tableRow;horizontal=0;startSize=0;swimlaneHead=0;swimlaneBody=0;fillColor=none;collapsible=0;dropTarget=0;points=[[0,0.5],[1,0.5]];portConstraint=eastwest;top=0;left=0;right=0;bottom=0;" vertex="1" parent="FiXkTNru_0fniCdlmBQr-4">
          <mxGeometry y="226" width="180" height="32" as="geometry" />
        </mxCell>
        <mxCell id="FiXkTNru_0fniCdlmBQr-39" value="time8" style="shape=partialRectangle;connectable=0;fillColor=none;top=0;left=0;bottom=0;right=0;editable=1;overflow=hidden;" vertex="1" parent="FiXkTNru_0fniCdlmBQr-38">
          <mxGeometry width="40.00000000000023" height="32" as="geometry">
            <mxRectangle width="40.00000000000023" height="32" as="alternateBounds" />
          </mxGeometry>
        </mxCell>
        <mxCell id="FiXkTNru_0fniCdlmBQr-40" value="updated_datetime_utc" style="shape=partialRectangle;connectable=0;fillColor=none;top=0;left=0;bottom=0;right=0;align=left;spacingLeft=6;overflow=hidden;" vertex="1" parent="FiXkTNru_0fniCdlmBQr-38">
          <mxGeometry x="40.00000000000023" width="139.99999999999977" height="32" as="geometry">
            <mxRectangle width="139.99999999999977" height="32" as="alternateBounds" />
          </mxGeometry>
        </mxCell>
        <mxCell id="FiXkTNru_0fniCdlmBQr-41" value="" style="shape=tableRow;horizontal=0;startSize=0;swimlaneHead=0;swimlaneBody=0;fillColor=none;collapsible=0;dropTarget=0;points=[[0,0.5],[1,0.5]];portConstraint=eastwest;top=0;left=0;right=0;bottom=0;" vertex="1" parent="FiXkTNru_0fniCdlmBQr-4">
          <mxGeometry y="258" width="180" height="32" as="geometry" />
        </mxCell>
        <mxCell id="FiXkTNru_0fniCdlmBQr-42" value="bool" style="shape=partialRectangle;connectable=0;fillColor=none;top=0;left=0;bottom=0;right=0;editable=1;overflow=hidden;" vertex="1" parent="FiXkTNru_0fniCdlmBQr-41">
          <mxGeometry width="40.00000000000023" height="32" as="geometry">
            <mxRectangle width="40.00000000000023" height="32" as="alternateBounds" />
          </mxGeometry>
        </mxCell>
        <mxCell id="FiXkTNru_0fniCdlmBQr-43" value="active" style="shape=partialRectangle;connectable=0;fillColor=none;top=0;left=0;bottom=0;right=0;align=left;spacingLeft=6;overflow=hidden;" vertex="1" parent="FiXkTNru_0fniCdlmBQr-41">
          <mxGeometry x="40.00000000000023" width="139.99999999999977" height="32" as="geometry">
            <mxRectangle width="139.99999999999977" height="32" as="alternateBounds" />
          </mxGeometry>
        </mxCell>
        <mxCell id="FiXkTNru_0fniCdlmBQr-44" value="tbl_company" style="shape=table;startSize=30;container=1;collapsible=1;childLayout=tableLayout;fixedRows=1;rowLines=0;fontStyle=1;align=center;resizeLast=1;fillColor=#fff2cc;strokeColor=#d6b656;rounded=1;shadow=0;swimlaneLine=1;sketch=0;columnLines=1;" vertex="1" parent="1">
          <mxGeometry x="440" y="-42" width="180" height="356" as="geometry" />
        </mxCell>
        <mxCell id="FiXkTNru_0fniCdlmBQr-45" value="" style="shape=tableRow;horizontal=0;startSize=0;swimlaneHead=0;swimlaneBody=0;fillColor=none;collapsible=0;dropTarget=0;points=[[0,0.5],[1,0.5]];portConstraint=eastwest;top=0;left=0;right=0;bottom=1;" vertex="1" parent="FiXkTNru_0fniCdlmBQr-44">
          <mxGeometry y="30" width="180" height="33" as="geometry" />
        </mxCell>
        <mxCell id="FiXkTNru_0fniCdlmBQr-46" value="PK" style="shape=partialRectangle;connectable=0;fillColor=none;top=0;left=0;bottom=0;right=0;fontStyle=1;overflow=hidden;" vertex="1" parent="FiXkTNru_0fniCdlmBQr-45">
          <mxGeometry width="40.00000000000023" height="33" as="geometry">
            <mxRectangle width="40.00000000000023" height="33" as="alternateBounds" />
          </mxGeometry>
        </mxCell>
        <mxCell id="FiXkTNru_0fniCdlmBQr-47" value="id" style="shape=partialRectangle;connectable=0;fillColor=none;top=0;left=0;bottom=0;right=0;align=left;spacingLeft=6;fontStyle=5;overflow=hidden;" vertex="1" parent="FiXkTNru_0fniCdlmBQr-45">
          <mxGeometry x="40.00000000000023" width="139.99999999999977" height="33" as="geometry">
            <mxRectangle width="139.99999999999977" height="33" as="alternateBounds" />
          </mxGeometry>
        </mxCell>
        <mxCell id="FiXkTNru_0fniCdlmBQr-414" value="" style="shape=tableRow;horizontal=0;startSize=0;swimlaneHead=0;swimlaneBody=0;fillColor=none;collapsible=0;dropTarget=0;points=[[0,0.5],[1,0.5]];portConstraint=eastwest;top=0;left=0;right=0;bottom=1;" vertex="1" parent="FiXkTNru_0fniCdlmBQr-44">
          <mxGeometry y="63" width="180" height="33" as="geometry" />
        </mxCell>
        <mxCell id="FiXkTNru_0fniCdlmBQr-415" value="FK" style="shape=partialRectangle;connectable=0;fillColor=none;top=0;left=0;bottom=0;right=0;fontStyle=1;overflow=hidden;" vertex="1" parent="FiXkTNru_0fniCdlmBQr-414">
          <mxGeometry width="40.00000000000023" height="33" as="geometry">
            <mxRectangle width="40.00000000000023" height="33" as="alternateBounds" />
          </mxGeometry>
        </mxCell>
        <mxCell id="FiXkTNru_0fniCdlmBQr-416" value="person_id" style="shape=partialRectangle;connectable=0;fillColor=none;top=0;left=0;bottom=0;right=0;align=left;spacingLeft=6;fontStyle=5;overflow=hidden;" vertex="1" parent="FiXkTNru_0fniCdlmBQr-414">
          <mxGeometry x="40.00000000000023" width="139.99999999999977" height="33" as="geometry">
            <mxRectangle width="139.99999999999977" height="33" as="alternateBounds" />
          </mxGeometry>
        </mxCell>
        <mxCell id="FiXkTNru_0fniCdlmBQr-48" value="" style="shape=tableRow;horizontal=0;startSize=0;swimlaneHead=0;swimlaneBody=0;fillColor=none;collapsible=0;dropTarget=0;points=[[0,0.5],[1,0.5]];portConstraint=eastwest;top=0;left=0;right=0;bottom=0;" vertex="1" parent="FiXkTNru_0fniCdlmBQr-44">
          <mxGeometry y="96" width="180" height="32" as="geometry" />
        </mxCell>
        <mxCell id="FiXkTNru_0fniCdlmBQr-49" value="text" style="shape=partialRectangle;connectable=0;fillColor=none;top=0;left=0;bottom=0;right=0;editable=1;overflow=hidden;" vertex="1" parent="FiXkTNru_0fniCdlmBQr-48">
          <mxGeometry width="40.00000000000023" height="32" as="geometry">
            <mxRectangle width="40.00000000000023" height="32" as="alternateBounds" />
          </mxGeometry>
        </mxCell>
        <mxCell id="FiXkTNru_0fniCdlmBQr-50" value="name" style="shape=partialRectangle;connectable=0;fillColor=none;top=0;left=0;bottom=0;right=0;align=left;spacingLeft=6;overflow=hidden;" vertex="1" parent="FiXkTNru_0fniCdlmBQr-48">
          <mxGeometry x="40.00000000000023" width="139.99999999999977" height="32" as="geometry">
            <mxRectangle width="139.99999999999977" height="32" as="alternateBounds" />
          </mxGeometry>
        </mxCell>
        <mxCell id="FiXkTNru_0fniCdlmBQr-51" value="" style="shape=tableRow;horizontal=0;startSize=0;swimlaneHead=0;swimlaneBody=0;fillColor=none;collapsible=0;dropTarget=0;points=[[0,0.5],[1,0.5]];portConstraint=eastwest;top=0;left=0;right=0;bottom=0;" vertex="1" parent="FiXkTNru_0fniCdlmBQr-44">
          <mxGeometry y="128" width="180" height="33" as="geometry" />
        </mxCell>
        <mxCell id="FiXkTNru_0fniCdlmBQr-52" value="text?" style="shape=partialRectangle;connectable=0;fillColor=none;top=0;left=0;bottom=0;right=0;editable=1;overflow=hidden;" vertex="1" parent="FiXkTNru_0fniCdlmBQr-51">
          <mxGeometry width="40.00000000000023" height="33" as="geometry">
            <mxRectangle width="40.00000000000023" height="33" as="alternateBounds" />
          </mxGeometry>
        </mxCell>
        <mxCell id="FiXkTNru_0fniCdlmBQr-53" value="icon" style="shape=partialRectangle;connectable=0;fillColor=none;top=0;left=0;bottom=0;right=0;align=left;spacingLeft=6;overflow=hidden;" vertex="1" parent="FiXkTNru_0fniCdlmBQr-51">
          <mxGeometry x="40.00000000000023" width="139.99999999999977" height="33" as="geometry">
            <mxRectangle width="139.99999999999977" height="33" as="alternateBounds" />
          </mxGeometry>
        </mxCell>
        <mxCell id="FiXkTNru_0fniCdlmBQr-69" value="" style="shape=tableRow;horizontal=0;startSize=0;swimlaneHead=0;swimlaneBody=0;fillColor=none;collapsible=0;dropTarget=0;points=[[0,0.5],[1,0.5]];portConstraint=eastwest;top=0;left=0;right=0;bottom=0;" vertex="1" parent="FiXkTNru_0fniCdlmBQr-44">
          <mxGeometry y="161" width="180" height="33" as="geometry" />
        </mxCell>
        <mxCell id="FiXkTNru_0fniCdlmBQr-70" value="int2" style="shape=partialRectangle;connectable=0;fillColor=none;top=0;left=0;bottom=0;right=0;editable=1;overflow=hidden;" vertex="1" parent="FiXkTNru_0fniCdlmBQr-69">
          <mxGeometry width="40.00000000000023" height="33" as="geometry">
            <mxRectangle width="40.00000000000023" height="33" as="alternateBounds" />
          </mxGeometry>
        </mxCell>
        <mxCell id="FiXkTNru_0fniCdlmBQr-71" value="work_type" style="shape=partialRectangle;connectable=0;fillColor=none;top=0;left=0;bottom=0;right=0;align=left;spacingLeft=6;overflow=hidden;" vertex="1" parent="FiXkTNru_0fniCdlmBQr-69">
          <mxGeometry x="40.00000000000023" width="139.99999999999977" height="33" as="geometry">
            <mxRectangle width="139.99999999999977" height="33" as="alternateBounds" />
          </mxGeometry>
        </mxCell>
        <mxCell id="FiXkTNru_0fniCdlmBQr-54" value="" style="shape=tableRow;horizontal=0;startSize=0;swimlaneHead=0;swimlaneBody=0;fillColor=none;collapsible=0;dropTarget=0;points=[[0,0.5],[1,0.5]];portConstraint=eastwest;top=0;left=0;right=0;bottom=0;" vertex="1" parent="FiXkTNru_0fniCdlmBQr-44">
          <mxGeometry y="194" width="180" height="33" as="geometry" />
        </mxCell>
        <mxCell id="FiXkTNru_0fniCdlmBQr-55" value="date" style="shape=partialRectangle;connectable=0;fillColor=none;top=0;left=0;bottom=0;right=0;editable=1;overflow=hidden;" vertex="1" parent="FiXkTNru_0fniCdlmBQr-54">
          <mxGeometry width="40.00000000000023" height="33" as="geometry">
            <mxRectangle width="40.00000000000023" height="33" as="alternateBounds" />
          </mxGeometry>
        </mxCell>
        <mxCell id="FiXkTNru_0fniCdlmBQr-56" value="start_date" style="shape=partialRectangle;connectable=0;fillColor=none;top=0;left=0;bottom=0;right=0;align=left;spacingLeft=6;overflow=hidden;" vertex="1" parent="FiXkTNru_0fniCdlmBQr-54">
          <mxGeometry x="40.00000000000023" width="139.99999999999977" height="33" as="geometry">
            <mxRectangle width="139.99999999999977" height="33" as="alternateBounds" />
          </mxGeometry>
        </mxCell>
        <mxCell id="FiXkTNru_0fniCdlmBQr-66" value="" style="shape=tableRow;horizontal=0;startSize=0;swimlaneHead=0;swimlaneBody=0;fillColor=none;collapsible=0;dropTarget=0;points=[[0,0.5],[1,0.5]];portConstraint=eastwest;top=0;left=0;right=0;bottom=0;" vertex="1" parent="FiXkTNru_0fniCdlmBQr-44">
          <mxGeometry y="227" width="180" height="33" as="geometry" />
        </mxCell>
        <mxCell id="FiXkTNru_0fniCdlmBQr-67" value="date?" style="shape=partialRectangle;connectable=0;fillColor=none;top=0;left=0;bottom=0;right=0;editable=1;overflow=hidden;" vertex="1" parent="FiXkTNru_0fniCdlmBQr-66">
          <mxGeometry width="40.00000000000023" height="33" as="geometry">
            <mxRectangle width="40.00000000000023" height="33" as="alternateBounds" />
          </mxGeometry>
        </mxCell>
        <mxCell id="FiXkTNru_0fniCdlmBQr-68" value="end_date" style="shape=partialRectangle;connectable=0;fillColor=none;top=0;left=0;bottom=0;right=0;align=left;spacingLeft=6;overflow=hidden;" vertex="1" parent="FiXkTNru_0fniCdlmBQr-66">
          <mxGeometry x="40.00000000000023" width="139.99999999999977" height="33" as="geometry">
            <mxRectangle width="139.99999999999977" height="33" as="alternateBounds" />
          </mxGeometry>
        </mxCell>
        <mxCell id="FiXkTNru_0fniCdlmBQr-57" value="" style="shape=tableRow;horizontal=0;startSize=0;swimlaneHead=0;swimlaneBody=0;fillColor=none;collapsible=0;dropTarget=0;points=[[0,0.5],[1,0.5]];portConstraint=eastwest;top=0;left=0;right=0;bottom=0;" vertex="1" parent="FiXkTNru_0fniCdlmBQr-44">
          <mxGeometry y="260" width="180" height="32" as="geometry" />
        </mxCell>
        <mxCell id="FiXkTNru_0fniCdlmBQr-58" value="time8" style="shape=partialRectangle;connectable=0;fillColor=none;top=0;left=0;bottom=0;right=0;editable=1;overflow=hidden;" vertex="1" parent="FiXkTNru_0fniCdlmBQr-57">
          <mxGeometry width="40.00000000000023" height="32" as="geometry">
            <mxRectangle width="40.00000000000023" height="32" as="alternateBounds" />
          </mxGeometry>
        </mxCell>
        <mxCell id="FiXkTNru_0fniCdlmBQr-59" value="created_datetime_utc" style="shape=partialRectangle;connectable=0;fillColor=none;top=0;left=0;bottom=0;right=0;align=left;spacingLeft=6;overflow=hidden;" vertex="1" parent="FiXkTNru_0fniCdlmBQr-57">
          <mxGeometry x="40.00000000000023" width="139.99999999999977" height="32" as="geometry">
            <mxRectangle width="139.99999999999977" height="32" as="alternateBounds" />
          </mxGeometry>
        </mxCell>
        <mxCell id="FiXkTNru_0fniCdlmBQr-60" value="" style="shape=tableRow;horizontal=0;startSize=0;swimlaneHead=0;swimlaneBody=0;fillColor=none;collapsible=0;dropTarget=0;points=[[0,0.5],[1,0.5]];portConstraint=eastwest;top=0;left=0;right=0;bottom=0;" vertex="1" parent="FiXkTNru_0fniCdlmBQr-44">
          <mxGeometry y="292" width="180" height="32" as="geometry" />
        </mxCell>
        <mxCell id="FiXkTNru_0fniCdlmBQr-61" value="time8" style="shape=partialRectangle;connectable=0;fillColor=none;top=0;left=0;bottom=0;right=0;editable=1;overflow=hidden;" vertex="1" parent="FiXkTNru_0fniCdlmBQr-60">
          <mxGeometry width="40.00000000000023" height="32" as="geometry">
            <mxRectangle width="40.00000000000023" height="32" as="alternateBounds" />
          </mxGeometry>
        </mxCell>
        <mxCell id="FiXkTNru_0fniCdlmBQr-62" value="updated_datetime_utc" style="shape=partialRectangle;connectable=0;fillColor=none;top=0;left=0;bottom=0;right=0;align=left;spacingLeft=6;overflow=hidden;" vertex="1" parent="FiXkTNru_0fniCdlmBQr-60">
          <mxGeometry x="40.00000000000023" width="139.99999999999977" height="32" as="geometry">
            <mxRectangle width="139.99999999999977" height="32" as="alternateBounds" />
          </mxGeometry>
        </mxCell>
        <mxCell id="FiXkTNru_0fniCdlmBQr-63" value="" style="shape=tableRow;horizontal=0;startSize=0;swimlaneHead=0;swimlaneBody=0;fillColor=none;collapsible=0;dropTarget=0;points=[[0,0.5],[1,0.5]];portConstraint=eastwest;top=0;left=0;right=0;bottom=0;" vertex="1" parent="FiXkTNru_0fniCdlmBQr-44">
          <mxGeometry y="324" width="180" height="32" as="geometry" />
        </mxCell>
        <mxCell id="FiXkTNru_0fniCdlmBQr-64" value="bool" style="shape=partialRectangle;connectable=0;fillColor=none;top=0;left=0;bottom=0;right=0;editable=1;overflow=hidden;" vertex="1" parent="FiXkTNru_0fniCdlmBQr-63">
          <mxGeometry width="40.00000000000023" height="32" as="geometry">
            <mxRectangle width="40.00000000000023" height="32" as="alternateBounds" />
          </mxGeometry>
        </mxCell>
        <mxCell id="FiXkTNru_0fniCdlmBQr-65" value="active" style="shape=partialRectangle;connectable=0;fillColor=none;top=0;left=0;bottom=0;right=0;align=left;spacingLeft=6;overflow=hidden;" vertex="1" parent="FiXkTNru_0fniCdlmBQr-63">
          <mxGeometry x="40.00000000000023" width="139.99999999999977" height="32" as="geometry">
            <mxRectangle width="139.99999999999977" height="32" as="alternateBounds" />
          </mxGeometry>
        </mxCell>
        <mxCell id="FiXkTNru_0fniCdlmBQr-112" value="tbl_reference" style="shape=table;startSize=30;container=1;collapsible=1;childLayout=tableLayout;fixedRows=1;rowLines=0;fontStyle=1;align=center;resizeLast=1;fillColor=#fff2cc;strokeColor=#d6b656;rounded=1;shadow=0;swimlaneLine=1;sketch=0;columnLines=1;" vertex="1" parent="1">
          <mxGeometry x="720" y="760" width="180" height="355" as="geometry" />
        </mxCell>
        <mxCell id="FiXkTNru_0fniCdlmBQr-113" value="" style="shape=tableRow;horizontal=0;startSize=0;swimlaneHead=0;swimlaneBody=0;fillColor=none;collapsible=0;dropTarget=0;points=[[0,0.5],[1,0.5]];portConstraint=eastwest;top=0;left=0;right=0;bottom=1;" vertex="1" parent="FiXkTNru_0fniCdlmBQr-112">
          <mxGeometry y="30" width="180" height="33" as="geometry" />
        </mxCell>
        <mxCell id="FiXkTNru_0fniCdlmBQr-114" value="PK" style="shape=partialRectangle;connectable=0;fillColor=none;top=0;left=0;bottom=0;right=0;fontStyle=1;overflow=hidden;" vertex="1" parent="FiXkTNru_0fniCdlmBQr-113">
          <mxGeometry width="40.00000000000023" height="33" as="geometry">
            <mxRectangle width="40.00000000000023" height="33" as="alternateBounds" />
          </mxGeometry>
        </mxCell>
        <mxCell id="FiXkTNru_0fniCdlmBQr-115" value="id" style="shape=partialRectangle;connectable=0;fillColor=none;top=0;left=0;bottom=0;right=0;align=left;spacingLeft=6;fontStyle=5;overflow=hidden;" vertex="1" parent="FiXkTNru_0fniCdlmBQr-113">
          <mxGeometry x="40.00000000000023" width="139.99999999999977" height="33" as="geometry">
            <mxRectangle width="139.99999999999977" height="33" as="alternateBounds" />
          </mxGeometry>
        </mxCell>
        <mxCell id="FiXkTNru_0fniCdlmBQr-393" value="" style="shape=tableRow;horizontal=0;startSize=0;swimlaneHead=0;swimlaneBody=0;fillColor=none;collapsible=0;dropTarget=0;points=[[0,0.5],[1,0.5]];portConstraint=eastwest;top=0;left=0;right=0;bottom=1;" vertex="1" parent="FiXkTNru_0fniCdlmBQr-112">
          <mxGeometry y="63" width="180" height="33" as="geometry" />
        </mxCell>
        <mxCell id="FiXkTNru_0fniCdlmBQr-394" value="FK" style="shape=partialRectangle;connectable=0;fillColor=none;top=0;left=0;bottom=0;right=0;fontStyle=1;overflow=hidden;" vertex="1" parent="FiXkTNru_0fniCdlmBQr-393">
          <mxGeometry width="40.00000000000023" height="33" as="geometry">
            <mxRectangle width="40.00000000000023" height="33" as="alternateBounds" />
          </mxGeometry>
        </mxCell>
        <mxCell id="FiXkTNru_0fniCdlmBQr-395" value="person_id" style="shape=partialRectangle;connectable=0;fillColor=none;top=0;left=0;bottom=0;right=0;align=left;spacingLeft=6;fontStyle=5;overflow=hidden;" vertex="1" parent="FiXkTNru_0fniCdlmBQr-393">
          <mxGeometry x="40.00000000000023" width="139.99999999999977" height="33" as="geometry">
            <mxRectangle width="139.99999999999977" height="33" as="alternateBounds" />
          </mxGeometry>
        </mxCell>
        <mxCell id="FiXkTNru_0fniCdlmBQr-116" value="" style="shape=tableRow;horizontal=0;startSize=0;swimlaneHead=0;swimlaneBody=0;fillColor=none;collapsible=0;dropTarget=0;points=[[0,0.5],[1,0.5]];portConstraint=eastwest;top=0;left=0;right=0;bottom=0;" vertex="1" parent="FiXkTNru_0fniCdlmBQr-112">
          <mxGeometry y="96" width="180" height="32" as="geometry" />
        </mxCell>
        <mxCell id="FiXkTNru_0fniCdlmBQr-117" value="text" style="shape=partialRectangle;connectable=0;fillColor=none;top=0;left=0;bottom=0;right=0;editable=1;overflow=hidden;" vertex="1" parent="FiXkTNru_0fniCdlmBQr-116">
          <mxGeometry width="40.00000000000023" height="32" as="geometry">
            <mxRectangle width="40.00000000000023" height="32" as="alternateBounds" />
          </mxGeometry>
        </mxCell>
        <mxCell id="FiXkTNru_0fniCdlmBQr-118" value="organization" style="shape=partialRectangle;connectable=0;fillColor=none;top=0;left=0;bottom=0;right=0;align=left;spacingLeft=6;overflow=hidden;" vertex="1" parent="FiXkTNru_0fniCdlmBQr-116">
          <mxGeometry x="40.00000000000023" width="139.99999999999977" height="32" as="geometry">
            <mxRectangle width="139.99999999999977" height="32" as="alternateBounds" />
          </mxGeometry>
        </mxCell>
        <mxCell id="FiXkTNru_0fniCdlmBQr-140" value="" style="shape=tableRow;horizontal=0;startSize=0;swimlaneHead=0;swimlaneBody=0;fillColor=none;collapsible=0;dropTarget=0;points=[[0,0.5],[1,0.5]];portConstraint=eastwest;top=0;left=0;right=0;bottom=0;" vertex="1" parent="FiXkTNru_0fniCdlmBQr-112">
          <mxGeometry y="128" width="180" height="32" as="geometry" />
        </mxCell>
        <mxCell id="FiXkTNru_0fniCdlmBQr-141" value="text" style="shape=partialRectangle;connectable=0;fillColor=none;top=0;left=0;bottom=0;right=0;editable=1;overflow=hidden;" vertex="1" parent="FiXkTNru_0fniCdlmBQr-140">
          <mxGeometry width="40.00000000000023" height="32" as="geometry">
            <mxRectangle width="40.00000000000023" height="32" as="alternateBounds" />
          </mxGeometry>
        </mxCell>
        <mxCell id="FiXkTNru_0fniCdlmBQr-142" value="full_name" style="shape=partialRectangle;connectable=0;fillColor=none;top=0;left=0;bottom=0;right=0;align=left;spacingLeft=6;overflow=hidden;" vertex="1" parent="FiXkTNru_0fniCdlmBQr-140">
          <mxGeometry x="40.00000000000023" width="139.99999999999977" height="32" as="geometry">
            <mxRectangle width="139.99999999999977" height="32" as="alternateBounds" />
          </mxGeometry>
        </mxCell>
        <mxCell id="FiXkTNru_0fniCdlmBQr-119" value="" style="shape=tableRow;horizontal=0;startSize=0;swimlaneHead=0;swimlaneBody=0;fillColor=none;collapsible=0;dropTarget=0;points=[[0,0.5],[1,0.5]];portConstraint=eastwest;top=0;left=0;right=0;bottom=0;" vertex="1" parent="FiXkTNru_0fniCdlmBQr-112">
          <mxGeometry y="160" width="180" height="33" as="geometry" />
        </mxCell>
        <mxCell id="FiXkTNru_0fniCdlmBQr-120" value="text?" style="shape=partialRectangle;connectable=0;fillColor=none;top=0;left=0;bottom=0;right=0;editable=1;overflow=hidden;" vertex="1" parent="FiXkTNru_0fniCdlmBQr-119">
          <mxGeometry width="40.00000000000023" height="33" as="geometry">
            <mxRectangle width="40.00000000000023" height="33" as="alternateBounds" />
          </mxGeometry>
        </mxCell>
        <mxCell id="FiXkTNru_0fniCdlmBQr-121" value="position" style="shape=partialRectangle;connectable=0;fillColor=none;top=0;left=0;bottom=0;right=0;align=left;spacingLeft=6;overflow=hidden;" vertex="1" parent="FiXkTNru_0fniCdlmBQr-119">
          <mxGeometry x="40.00000000000023" width="139.99999999999977" height="33" as="geometry">
            <mxRectangle width="139.99999999999977" height="33" as="alternateBounds" />
          </mxGeometry>
        </mxCell>
        <mxCell id="FiXkTNru_0fniCdlmBQr-122" value="" style="shape=tableRow;horizontal=0;startSize=0;swimlaneHead=0;swimlaneBody=0;fillColor=none;collapsible=0;dropTarget=0;points=[[0,0.5],[1,0.5]];portConstraint=eastwest;top=0;left=0;right=0;bottom=0;" vertex="1" parent="FiXkTNru_0fniCdlmBQr-112">
          <mxGeometry y="193" width="180" height="33" as="geometry" />
        </mxCell>
        <mxCell id="FiXkTNru_0fniCdlmBQr-123" value="text?" style="shape=partialRectangle;connectable=0;fillColor=none;top=0;left=0;bottom=0;right=0;editable=1;overflow=hidden;" vertex="1" parent="FiXkTNru_0fniCdlmBQr-122">
          <mxGeometry width="40.00000000000023" height="33" as="geometry">
            <mxRectangle width="40.00000000000023" height="33" as="alternateBounds" />
          </mxGeometry>
        </mxCell>
        <mxCell id="FiXkTNru_0fniCdlmBQr-124" value="email" style="shape=partialRectangle;connectable=0;fillColor=none;top=0;left=0;bottom=0;right=0;align=left;spacingLeft=6;overflow=hidden;" vertex="1" parent="FiXkTNru_0fniCdlmBQr-122">
          <mxGeometry x="40.00000000000023" width="139.99999999999977" height="33" as="geometry">
            <mxRectangle width="139.99999999999977" height="33" as="alternateBounds" />
          </mxGeometry>
        </mxCell>
        <mxCell id="FiXkTNru_0fniCdlmBQr-143" value="" style="shape=tableRow;horizontal=0;startSize=0;swimlaneHead=0;swimlaneBody=0;fillColor=none;collapsible=0;dropTarget=0;points=[[0,0.5],[1,0.5]];portConstraint=eastwest;top=0;left=0;right=0;bottom=0;" vertex="1" parent="FiXkTNru_0fniCdlmBQr-112">
          <mxGeometry y="226" width="180" height="33" as="geometry" />
        </mxCell>
        <mxCell id="FiXkTNru_0fniCdlmBQr-144" value="text?" style="shape=partialRectangle;connectable=0;fillColor=none;top=0;left=0;bottom=0;right=0;editable=1;overflow=hidden;" vertex="1" parent="FiXkTNru_0fniCdlmBQr-143">
          <mxGeometry width="40.00000000000023" height="33" as="geometry">
            <mxRectangle width="40.00000000000023" height="33" as="alternateBounds" />
          </mxGeometry>
        </mxCell>
        <mxCell id="FiXkTNru_0fniCdlmBQr-145" value="phone" style="shape=partialRectangle;connectable=0;fillColor=none;top=0;left=0;bottom=0;right=0;align=left;spacingLeft=6;overflow=hidden;" vertex="1" parent="FiXkTNru_0fniCdlmBQr-143">
          <mxGeometry x="40.00000000000023" width="139.99999999999977" height="33" as="geometry">
            <mxRectangle width="139.99999999999977" height="33" as="alternateBounds" />
          </mxGeometry>
        </mxCell>
        <mxCell id="FiXkTNru_0fniCdlmBQr-131" value="" style="shape=tableRow;horizontal=0;startSize=0;swimlaneHead=0;swimlaneBody=0;fillColor=none;collapsible=0;dropTarget=0;points=[[0,0.5],[1,0.5]];portConstraint=eastwest;top=0;left=0;right=0;bottom=0;" vertex="1" parent="FiXkTNru_0fniCdlmBQr-112">
          <mxGeometry y="259" width="180" height="32" as="geometry" />
        </mxCell>
        <mxCell id="FiXkTNru_0fniCdlmBQr-132" value="time8" style="shape=partialRectangle;connectable=0;fillColor=none;top=0;left=0;bottom=0;right=0;editable=1;overflow=hidden;" vertex="1" parent="FiXkTNru_0fniCdlmBQr-131">
          <mxGeometry width="40.00000000000023" height="32" as="geometry">
            <mxRectangle width="40.00000000000023" height="32" as="alternateBounds" />
          </mxGeometry>
        </mxCell>
        <mxCell id="FiXkTNru_0fniCdlmBQr-133" value="created_datetime_utc" style="shape=partialRectangle;connectable=0;fillColor=none;top=0;left=0;bottom=0;right=0;align=left;spacingLeft=6;overflow=hidden;" vertex="1" parent="FiXkTNru_0fniCdlmBQr-131">
          <mxGeometry x="40.00000000000023" width="139.99999999999977" height="32" as="geometry">
            <mxRectangle width="139.99999999999977" height="32" as="alternateBounds" />
          </mxGeometry>
        </mxCell>
        <mxCell id="FiXkTNru_0fniCdlmBQr-134" value="" style="shape=tableRow;horizontal=0;startSize=0;swimlaneHead=0;swimlaneBody=0;fillColor=none;collapsible=0;dropTarget=0;points=[[0,0.5],[1,0.5]];portConstraint=eastwest;top=0;left=0;right=0;bottom=0;" vertex="1" parent="FiXkTNru_0fniCdlmBQr-112">
          <mxGeometry y="291" width="180" height="32" as="geometry" />
        </mxCell>
        <mxCell id="FiXkTNru_0fniCdlmBQr-135" value="time8" style="shape=partialRectangle;connectable=0;fillColor=none;top=0;left=0;bottom=0;right=0;editable=1;overflow=hidden;" vertex="1" parent="FiXkTNru_0fniCdlmBQr-134">
          <mxGeometry width="40.00000000000023" height="32" as="geometry">
            <mxRectangle width="40.00000000000023" height="32" as="alternateBounds" />
          </mxGeometry>
        </mxCell>
        <mxCell id="FiXkTNru_0fniCdlmBQr-136" value="updated_datetime_utc" style="shape=partialRectangle;connectable=0;fillColor=none;top=0;left=0;bottom=0;right=0;align=left;spacingLeft=6;overflow=hidden;" vertex="1" parent="FiXkTNru_0fniCdlmBQr-134">
          <mxGeometry x="40.00000000000023" width="139.99999999999977" height="32" as="geometry">
            <mxRectangle width="139.99999999999977" height="32" as="alternateBounds" />
          </mxGeometry>
        </mxCell>
        <mxCell id="FiXkTNru_0fniCdlmBQr-137" value="" style="shape=tableRow;horizontal=0;startSize=0;swimlaneHead=0;swimlaneBody=0;fillColor=none;collapsible=0;dropTarget=0;points=[[0,0.5],[1,0.5]];portConstraint=eastwest;top=0;left=0;right=0;bottom=0;" vertex="1" parent="FiXkTNru_0fniCdlmBQr-112">
          <mxGeometry y="323" width="180" height="32" as="geometry" />
        </mxCell>
        <mxCell id="FiXkTNru_0fniCdlmBQr-138" value="bool" style="shape=partialRectangle;connectable=0;fillColor=none;top=0;left=0;bottom=0;right=0;editable=1;overflow=hidden;" vertex="1" parent="FiXkTNru_0fniCdlmBQr-137">
          <mxGeometry width="40.00000000000023" height="32" as="geometry">
            <mxRectangle width="40.00000000000023" height="32" as="alternateBounds" />
          </mxGeometry>
        </mxCell>
        <mxCell id="FiXkTNru_0fniCdlmBQr-139" value="active" style="shape=partialRectangle;connectable=0;fillColor=none;top=0;left=0;bottom=0;right=0;align=left;spacingLeft=6;overflow=hidden;" vertex="1" parent="FiXkTNru_0fniCdlmBQr-137">
          <mxGeometry x="40.00000000000023" width="139.99999999999977" height="32" as="geometry">
            <mxRectangle width="139.99999999999977" height="32" as="alternateBounds" />
          </mxGeometry>
        </mxCell>
        <mxCell id="FiXkTNru_0fniCdlmBQr-146" value="tbl_achievement" style="shape=table;startSize=30;container=1;collapsible=1;childLayout=tableLayout;fixedRows=1;rowLines=0;fontStyle=1;align=center;resizeLast=1;fillColor=#fff2cc;strokeColor=#d6b656;rounded=1;shadow=0;swimlaneLine=1;sketch=0;columnLines=1;" vertex="1" parent="1">
          <mxGeometry x="160" y="800" width="180" height="384" as="geometry" />
        </mxCell>
        <mxCell id="FiXkTNru_0fniCdlmBQr-147" value="" style="shape=tableRow;horizontal=0;startSize=0;swimlaneHead=0;swimlaneBody=0;fillColor=none;collapsible=0;dropTarget=0;points=[[0,0.5],[1,0.5]];portConstraint=eastwest;top=0;left=0;right=0;bottom=1;" vertex="1" parent="FiXkTNru_0fniCdlmBQr-146">
          <mxGeometry y="30" width="180" height="33" as="geometry" />
        </mxCell>
        <mxCell id="FiXkTNru_0fniCdlmBQr-148" value="PK" style="shape=partialRectangle;connectable=0;fillColor=none;top=0;left=0;bottom=0;right=0;fontStyle=1;overflow=hidden;" vertex="1" parent="FiXkTNru_0fniCdlmBQr-147">
          <mxGeometry width="40.00000000000023" height="33" as="geometry">
            <mxRectangle width="40.00000000000023" height="33" as="alternateBounds" />
          </mxGeometry>
        </mxCell>
        <mxCell id="FiXkTNru_0fniCdlmBQr-149" value="id" style="shape=partialRectangle;connectable=0;fillColor=none;top=0;left=0;bottom=0;right=0;align=left;spacingLeft=6;fontStyle=5;overflow=hidden;" vertex="1" parent="FiXkTNru_0fniCdlmBQr-147">
          <mxGeometry x="40.00000000000023" width="139.99999999999977" height="33" as="geometry">
            <mxRectangle width="139.99999999999977" height="33" as="alternateBounds" />
          </mxGeometry>
        </mxCell>
        <mxCell id="FiXkTNru_0fniCdlmBQr-307" value="" style="shape=tableRow;horizontal=0;startSize=0;swimlaneHead=0;swimlaneBody=0;fillColor=none;collapsible=0;dropTarget=0;points=[[0,0.5],[1,0.5]];portConstraint=eastwest;top=0;left=0;right=0;bottom=1;" vertex="1" parent="FiXkTNru_0fniCdlmBQr-146">
          <mxGeometry y="63" width="180" height="33" as="geometry" />
        </mxCell>
        <mxCell id="FiXkTNru_0fniCdlmBQr-308" value="FK" style="shape=partialRectangle;connectable=0;fillColor=none;top=0;left=0;bottom=0;right=0;fontStyle=1;overflow=hidden;" vertex="1" parent="FiXkTNru_0fniCdlmBQr-307">
          <mxGeometry width="40.00000000000023" height="33" as="geometry">
            <mxRectangle width="40.00000000000023" height="33" as="alternateBounds" />
          </mxGeometry>
        </mxCell>
        <mxCell id="FiXkTNru_0fniCdlmBQr-309" value="person_id" style="shape=partialRectangle;connectable=0;fillColor=none;top=0;left=0;bottom=0;right=0;align=left;spacingLeft=6;fontStyle=5;overflow=hidden;" vertex="1" parent="FiXkTNru_0fniCdlmBQr-307">
          <mxGeometry x="40.00000000000023" width="139.99999999999977" height="33" as="geometry">
            <mxRectangle width="139.99999999999977" height="33" as="alternateBounds" />
          </mxGeometry>
        </mxCell>
        <mxCell id="FiXkTNru_0fniCdlmBQr-150" value="" style="shape=tableRow;horizontal=0;startSize=0;swimlaneHead=0;swimlaneBody=0;fillColor=none;collapsible=0;dropTarget=0;points=[[0,0.5],[1,0.5]];portConstraint=eastwest;top=0;left=0;right=0;bottom=0;" vertex="1" parent="FiXkTNru_0fniCdlmBQr-146">
          <mxGeometry y="96" width="180" height="32" as="geometry" />
        </mxCell>
        <mxCell id="FiXkTNru_0fniCdlmBQr-151" value="text" style="shape=partialRectangle;connectable=0;fillColor=none;top=0;left=0;bottom=0;right=0;editable=1;overflow=hidden;" vertex="1" parent="FiXkTNru_0fniCdlmBQr-150">
          <mxGeometry width="40.00000000000023" height="32" as="geometry">
            <mxRectangle width="40.00000000000023" height="32" as="alternateBounds" />
          </mxGeometry>
        </mxCell>
        <mxCell id="FiXkTNru_0fniCdlmBQr-152" value="name" style="shape=partialRectangle;connectable=0;fillColor=none;top=0;left=0;bottom=0;right=0;align=left;spacingLeft=6;overflow=hidden;" vertex="1" parent="FiXkTNru_0fniCdlmBQr-150">
          <mxGeometry x="40.00000000000023" width="139.99999999999977" height="32" as="geometry">
            <mxRectangle width="139.99999999999977" height="32" as="alternateBounds" />
          </mxGeometry>
        </mxCell>
        <mxCell id="FiXkTNru_0fniCdlmBQr-174" value="" style="shape=tableRow;horizontal=0;startSize=0;swimlaneHead=0;swimlaneBody=0;fillColor=none;collapsible=0;dropTarget=0;points=[[0,0.5],[1,0.5]];portConstraint=eastwest;top=0;left=0;right=0;bottom=0;" vertex="1" parent="FiXkTNru_0fniCdlmBQr-146">
          <mxGeometry y="128" width="180" height="32" as="geometry" />
        </mxCell>
        <mxCell id="FiXkTNru_0fniCdlmBQr-175" value="int2" style="shape=partialRectangle;connectable=0;fillColor=none;top=0;left=0;bottom=0;right=0;editable=1;overflow=hidden;" vertex="1" parent="FiXkTNru_0fniCdlmBQr-174">
          <mxGeometry width="40.00000000000023" height="32" as="geometry">
            <mxRectangle width="40.00000000000023" height="32" as="alternateBounds" />
          </mxGeometry>
        </mxCell>
        <mxCell id="FiXkTNru_0fniCdlmBQr-176" value="type" style="shape=partialRectangle;connectable=0;fillColor=none;top=0;left=0;bottom=0;right=0;align=left;spacingLeft=6;overflow=hidden;" vertex="1" parent="FiXkTNru_0fniCdlmBQr-174">
          <mxGeometry x="40.00000000000023" width="139.99999999999977" height="32" as="geometry">
            <mxRectangle width="139.99999999999977" height="32" as="alternateBounds" />
          </mxGeometry>
        </mxCell>
        <mxCell id="FiXkTNru_0fniCdlmBQr-153" value="" style="shape=tableRow;horizontal=0;startSize=0;swimlaneHead=0;swimlaneBody=0;fillColor=none;collapsible=0;dropTarget=0;points=[[0,0.5],[1,0.5]];portConstraint=eastwest;top=0;left=0;right=0;bottom=0;" vertex="1" parent="FiXkTNru_0fniCdlmBQr-146">
          <mxGeometry y="160" width="180" height="32" as="geometry" />
        </mxCell>
        <mxCell id="FiXkTNru_0fniCdlmBQr-154" value="text?" style="shape=partialRectangle;connectable=0;fillColor=none;top=0;left=0;bottom=0;right=0;editable=1;overflow=hidden;" vertex="1" parent="FiXkTNru_0fniCdlmBQr-153">
          <mxGeometry width="40.00000000000023" height="32" as="geometry">
            <mxRectangle width="40.00000000000023" height="32" as="alternateBounds" />
          </mxGeometry>
        </mxCell>
        <mxCell id="FiXkTNru_0fniCdlmBQr-155" value="description" style="shape=partialRectangle;connectable=0;fillColor=none;top=0;left=0;bottom=0;right=0;align=left;spacingLeft=6;overflow=hidden;" vertex="1" parent="FiXkTNru_0fniCdlmBQr-153">
          <mxGeometry x="40.00000000000023" width="139.99999999999977" height="32" as="geometry">
            <mxRectangle width="139.99999999999977" height="32" as="alternateBounds" />
          </mxGeometry>
        </mxCell>
        <mxCell id="FiXkTNru_0fniCdlmBQr-183" value="" style="shape=tableRow;horizontal=0;startSize=0;swimlaneHead=0;swimlaneBody=0;fillColor=none;collapsible=0;dropTarget=0;points=[[0,0.5],[1,0.5]];portConstraint=eastwest;top=0;left=0;right=0;bottom=0;" vertex="1" parent="FiXkTNru_0fniCdlmBQr-146">
          <mxGeometry y="192" width="180" height="32" as="geometry" />
        </mxCell>
        <mxCell id="FiXkTNru_0fniCdlmBQr-184" value="text?" style="shape=partialRectangle;connectable=0;fillColor=none;top=0;left=0;bottom=0;right=0;editable=1;overflow=hidden;" vertex="1" parent="FiXkTNru_0fniCdlmBQr-183">
          <mxGeometry width="40.00000000000023" height="32" as="geometry">
            <mxRectangle width="40.00000000000023" height="32" as="alternateBounds" />
          </mxGeometry>
        </mxCell>
        <mxCell id="FiXkTNru_0fniCdlmBQr-185" value="result" style="shape=partialRectangle;connectable=0;fillColor=none;top=0;left=0;bottom=0;right=0;align=left;spacingLeft=6;overflow=hidden;" vertex="1" parent="FiXkTNru_0fniCdlmBQr-183">
          <mxGeometry x="40.00000000000023" width="139.99999999999977" height="32" as="geometry">
            <mxRectangle width="139.99999999999977" height="32" as="alternateBounds" />
          </mxGeometry>
        </mxCell>
        <mxCell id="FiXkTNru_0fniCdlmBQr-177" value="" style="shape=tableRow;horizontal=0;startSize=0;swimlaneHead=0;swimlaneBody=0;fillColor=none;collapsible=0;dropTarget=0;points=[[0,0.5],[1,0.5]];portConstraint=eastwest;top=0;left=0;right=0;bottom=0;" vertex="1" parent="FiXkTNru_0fniCdlmBQr-146">
          <mxGeometry y="224" width="180" height="32" as="geometry" />
        </mxCell>
        <mxCell id="FiXkTNru_0fniCdlmBQr-178" value="date" style="shape=partialRectangle;connectable=0;fillColor=none;top=0;left=0;bottom=0;right=0;editable=1;overflow=hidden;" vertex="1" parent="FiXkTNru_0fniCdlmBQr-177">
          <mxGeometry width="40.00000000000023" height="32" as="geometry">
            <mxRectangle width="40.00000000000023" height="32" as="alternateBounds" />
          </mxGeometry>
        </mxCell>
        <mxCell id="FiXkTNru_0fniCdlmBQr-179" value="start_date" style="shape=partialRectangle;connectable=0;fillColor=none;top=0;left=0;bottom=0;right=0;align=left;spacingLeft=6;overflow=hidden;" vertex="1" parent="FiXkTNru_0fniCdlmBQr-177">
          <mxGeometry x="40.00000000000023" width="139.99999999999977" height="32" as="geometry">
            <mxRectangle width="139.99999999999977" height="32" as="alternateBounds" />
          </mxGeometry>
        </mxCell>
        <mxCell id="FiXkTNru_0fniCdlmBQr-180" value="" style="shape=tableRow;horizontal=0;startSize=0;swimlaneHead=0;swimlaneBody=0;fillColor=none;collapsible=0;dropTarget=0;points=[[0,0.5],[1,0.5]];portConstraint=eastwest;top=0;left=0;right=0;bottom=0;" vertex="1" parent="FiXkTNru_0fniCdlmBQr-146">
          <mxGeometry y="256" width="180" height="32" as="geometry" />
        </mxCell>
        <mxCell id="FiXkTNru_0fniCdlmBQr-181" value="date?" style="shape=partialRectangle;connectable=0;fillColor=none;top=0;left=0;bottom=0;right=0;editable=1;overflow=hidden;" vertex="1" parent="FiXkTNru_0fniCdlmBQr-180">
          <mxGeometry width="40.00000000000023" height="32" as="geometry">
            <mxRectangle width="40.00000000000023" height="32" as="alternateBounds" />
          </mxGeometry>
        </mxCell>
        <mxCell id="FiXkTNru_0fniCdlmBQr-182" value="end_date" style="shape=partialRectangle;connectable=0;fillColor=none;top=0;left=0;bottom=0;right=0;align=left;spacingLeft=6;overflow=hidden;" vertex="1" parent="FiXkTNru_0fniCdlmBQr-180">
          <mxGeometry x="40.00000000000023" width="139.99999999999977" height="32" as="geometry">
            <mxRectangle width="139.99999999999977" height="32" as="alternateBounds" />
          </mxGeometry>
        </mxCell>
        <mxCell id="FiXkTNru_0fniCdlmBQr-165" value="" style="shape=tableRow;horizontal=0;startSize=0;swimlaneHead=0;swimlaneBody=0;fillColor=none;collapsible=0;dropTarget=0;points=[[0,0.5],[1,0.5]];portConstraint=eastwest;top=0;left=0;right=0;bottom=0;" vertex="1" parent="FiXkTNru_0fniCdlmBQr-146">
          <mxGeometry y="288" width="180" height="32" as="geometry" />
        </mxCell>
        <mxCell id="FiXkTNru_0fniCdlmBQr-166" value="time8" style="shape=partialRectangle;connectable=0;fillColor=none;top=0;left=0;bottom=0;right=0;editable=1;overflow=hidden;" vertex="1" parent="FiXkTNru_0fniCdlmBQr-165">
          <mxGeometry width="40.00000000000023" height="32" as="geometry">
            <mxRectangle width="40.00000000000023" height="32" as="alternateBounds" />
          </mxGeometry>
        </mxCell>
        <mxCell id="FiXkTNru_0fniCdlmBQr-167" value="created_datetime_utc" style="shape=partialRectangle;connectable=0;fillColor=none;top=0;left=0;bottom=0;right=0;align=left;spacingLeft=6;overflow=hidden;" vertex="1" parent="FiXkTNru_0fniCdlmBQr-165">
          <mxGeometry x="40.00000000000023" width="139.99999999999977" height="32" as="geometry">
            <mxRectangle width="139.99999999999977" height="32" as="alternateBounds" />
          </mxGeometry>
        </mxCell>
        <mxCell id="FiXkTNru_0fniCdlmBQr-168" value="" style="shape=tableRow;horizontal=0;startSize=0;swimlaneHead=0;swimlaneBody=0;fillColor=none;collapsible=0;dropTarget=0;points=[[0,0.5],[1,0.5]];portConstraint=eastwest;top=0;left=0;right=0;bottom=0;" vertex="1" parent="FiXkTNru_0fniCdlmBQr-146">
          <mxGeometry y="320" width="180" height="32" as="geometry" />
        </mxCell>
        <mxCell id="FiXkTNru_0fniCdlmBQr-169" value="time8" style="shape=partialRectangle;connectable=0;fillColor=none;top=0;left=0;bottom=0;right=0;editable=1;overflow=hidden;" vertex="1" parent="FiXkTNru_0fniCdlmBQr-168">
          <mxGeometry width="40.00000000000023" height="32" as="geometry">
            <mxRectangle width="40.00000000000023" height="32" as="alternateBounds" />
          </mxGeometry>
        </mxCell>
        <mxCell id="FiXkTNru_0fniCdlmBQr-170" value="updated_datetime_utc" style="shape=partialRectangle;connectable=0;fillColor=none;top=0;left=0;bottom=0;right=0;align=left;spacingLeft=6;overflow=hidden;" vertex="1" parent="FiXkTNru_0fniCdlmBQr-168">
          <mxGeometry x="40.00000000000023" width="139.99999999999977" height="32" as="geometry">
            <mxRectangle width="139.99999999999977" height="32" as="alternateBounds" />
          </mxGeometry>
        </mxCell>
        <mxCell id="FiXkTNru_0fniCdlmBQr-171" value="" style="shape=tableRow;horizontal=0;startSize=0;swimlaneHead=0;swimlaneBody=0;fillColor=none;collapsible=0;dropTarget=0;points=[[0,0.5],[1,0.5]];portConstraint=eastwest;top=0;left=0;right=0;bottom=0;" vertex="1" parent="FiXkTNru_0fniCdlmBQr-146">
          <mxGeometry y="352" width="180" height="32" as="geometry" />
        </mxCell>
        <mxCell id="FiXkTNru_0fniCdlmBQr-172" value="bool" style="shape=partialRectangle;connectable=0;fillColor=none;top=0;left=0;bottom=0;right=0;editable=1;overflow=hidden;" vertex="1" parent="FiXkTNru_0fniCdlmBQr-171">
          <mxGeometry width="40.00000000000023" height="32" as="geometry">
            <mxRectangle width="40.00000000000023" height="32" as="alternateBounds" />
          </mxGeometry>
        </mxCell>
        <mxCell id="FiXkTNru_0fniCdlmBQr-173" value="active" style="shape=partialRectangle;connectable=0;fillColor=none;top=0;left=0;bottom=0;right=0;align=left;spacingLeft=6;overflow=hidden;" vertex="1" parent="FiXkTNru_0fniCdlmBQr-171">
          <mxGeometry x="40.00000000000023" width="139.99999999999977" height="32" as="geometry">
            <mxRectangle width="139.99999999999977" height="32" as="alternateBounds" />
          </mxGeometry>
        </mxCell>
        <mxCell id="FiXkTNru_0fniCdlmBQr-186" value="tbl_template_instance" style="shape=table;startSize=30;container=1;collapsible=1;childLayout=tableLayout;fixedRows=1;rowLines=0;fontStyle=1;align=center;resizeLast=1;fillColor=#fff2cc;strokeColor=#d6b656;rounded=1;shadow=0;swimlaneLine=1;sketch=0;columnLines=1;" vertex="1" parent="1">
          <mxGeometry x="720" y="360" width="180" height="321" as="geometry" />
        </mxCell>
        <mxCell id="FiXkTNru_0fniCdlmBQr-187" value="" style="shape=tableRow;horizontal=0;startSize=0;swimlaneHead=0;swimlaneBody=0;fillColor=none;collapsible=0;dropTarget=0;points=[[0,0.5],[1,0.5]];portConstraint=eastwest;top=0;left=0;right=0;bottom=1;" vertex="1" parent="FiXkTNru_0fniCdlmBQr-186">
          <mxGeometry y="30" width="180" height="33" as="geometry" />
        </mxCell>
        <mxCell id="FiXkTNru_0fniCdlmBQr-188" value="PK" style="shape=partialRectangle;connectable=0;fillColor=none;top=0;left=0;bottom=0;right=0;fontStyle=1;overflow=hidden;" vertex="1" parent="FiXkTNru_0fniCdlmBQr-187">
          <mxGeometry width="40.00000000000023" height="33" as="geometry">
            <mxRectangle width="40.00000000000023" height="33" as="alternateBounds" />
          </mxGeometry>
        </mxCell>
        <mxCell id="FiXkTNru_0fniCdlmBQr-189" value="id" style="shape=partialRectangle;connectable=0;fillColor=none;top=0;left=0;bottom=0;right=0;align=left;spacingLeft=6;fontStyle=5;overflow=hidden;" vertex="1" parent="FiXkTNru_0fniCdlmBQr-187">
          <mxGeometry x="40.00000000000023" width="139.99999999999977" height="33" as="geometry">
            <mxRectangle width="139.99999999999977" height="33" as="alternateBounds" />
          </mxGeometry>
        </mxCell>
        <mxCell id="FiXkTNru_0fniCdlmBQr-295" value="" style="shape=tableRow;horizontal=0;startSize=0;swimlaneHead=0;swimlaneBody=0;fillColor=none;collapsible=0;dropTarget=0;points=[[0,0.5],[1,0.5]];portConstraint=eastwest;top=0;left=0;right=0;bottom=1;" vertex="1" parent="FiXkTNru_0fniCdlmBQr-186">
          <mxGeometry y="63" width="180" height="33" as="geometry" />
        </mxCell>
        <mxCell id="FiXkTNru_0fniCdlmBQr-296" value="FK" style="shape=partialRectangle;connectable=0;fillColor=none;top=0;left=0;bottom=0;right=0;fontStyle=1;overflow=hidden;" vertex="1" parent="FiXkTNru_0fniCdlmBQr-295">
          <mxGeometry width="40.00000000000023" height="33" as="geometry">
            <mxRectangle width="40.00000000000023" height="33" as="alternateBounds" />
          </mxGeometry>
        </mxCell>
        <mxCell id="FiXkTNru_0fniCdlmBQr-297" value="person_id" style="shape=partialRectangle;connectable=0;fillColor=none;top=0;left=0;bottom=0;right=0;align=left;spacingLeft=6;fontStyle=5;overflow=hidden;" vertex="1" parent="FiXkTNru_0fniCdlmBQr-295">
          <mxGeometry x="40.00000000000023" width="139.99999999999977" height="33" as="geometry">
            <mxRectangle width="139.99999999999977" height="33" as="alternateBounds" />
          </mxGeometry>
        </mxCell>
        <mxCell id="FiXkTNru_0fniCdlmBQr-298" value="" style="shape=tableRow;horizontal=0;startSize=0;swimlaneHead=0;swimlaneBody=0;fillColor=none;collapsible=0;dropTarget=0;points=[[0,0.5],[1,0.5]];portConstraint=eastwest;top=0;left=0;right=0;bottom=1;" vertex="1" parent="FiXkTNru_0fniCdlmBQr-186">
          <mxGeometry y="96" width="180" height="33" as="geometry" />
        </mxCell>
        <mxCell id="FiXkTNru_0fniCdlmBQr-299" value="FK" style="shape=partialRectangle;connectable=0;fillColor=none;top=0;left=0;bottom=0;right=0;fontStyle=1;overflow=hidden;" vertex="1" parent="FiXkTNru_0fniCdlmBQr-298">
          <mxGeometry width="40.00000000000023" height="33" as="geometry">
            <mxRectangle width="40.00000000000023" height="33" as="alternateBounds" />
          </mxGeometry>
        </mxCell>
        <mxCell id="FiXkTNru_0fniCdlmBQr-300" value="template_id" style="shape=partialRectangle;connectable=0;fillColor=none;top=0;left=0;bottom=0;right=0;align=left;spacingLeft=6;fontStyle=5;overflow=hidden;" vertex="1" parent="FiXkTNru_0fniCdlmBQr-298">
          <mxGeometry x="40.00000000000023" width="139.99999999999977" height="33" as="geometry">
            <mxRectangle width="139.99999999999977" height="33" as="alternateBounds" />
          </mxGeometry>
        </mxCell>
        <mxCell id="FiXkTNru_0fniCdlmBQr-190" value="" style="shape=tableRow;horizontal=0;startSize=0;swimlaneHead=0;swimlaneBody=0;fillColor=none;collapsible=0;dropTarget=0;points=[[0,0.5],[1,0.5]];portConstraint=eastwest;top=0;left=0;right=0;bottom=0;" vertex="1" parent="FiXkTNru_0fniCdlmBQr-186">
          <mxGeometry y="129" width="180" height="32" as="geometry" />
        </mxCell>
        <mxCell id="FiXkTNru_0fniCdlmBQr-191" value="text" style="shape=partialRectangle;connectable=0;fillColor=none;top=0;left=0;bottom=0;right=0;editable=1;overflow=hidden;" vertex="1" parent="FiXkTNru_0fniCdlmBQr-190">
          <mxGeometry width="40.00000000000023" height="32" as="geometry">
            <mxRectangle width="40.00000000000023" height="32" as="alternateBounds" />
          </mxGeometry>
        </mxCell>
        <mxCell id="FiXkTNru_0fniCdlmBQr-192" value="name" style="shape=partialRectangle;connectable=0;fillColor=none;top=0;left=0;bottom=0;right=0;align=left;spacingLeft=6;overflow=hidden;" vertex="1" parent="FiXkTNru_0fniCdlmBQr-190">
          <mxGeometry x="40.00000000000023" width="139.99999999999977" height="32" as="geometry">
            <mxRectangle width="139.99999999999977" height="32" as="alternateBounds" />
          </mxGeometry>
        </mxCell>
        <mxCell id="FiXkTNru_0fniCdlmBQr-217" value="" style="shape=tableRow;horizontal=0;startSize=0;swimlaneHead=0;swimlaneBody=0;fillColor=none;collapsible=0;dropTarget=0;points=[[0,0.5],[1,0.5]];portConstraint=eastwest;top=0;left=0;right=0;bottom=0;" vertex="1" parent="FiXkTNru_0fniCdlmBQr-186">
          <mxGeometry y="161" width="180" height="32" as="geometry" />
        </mxCell>
        <mxCell id="FiXkTNru_0fniCdlmBQr-218" value="text?" style="shape=partialRectangle;connectable=0;fillColor=none;top=0;left=0;bottom=0;right=0;editable=1;overflow=hidden;" vertex="1" parent="FiXkTNru_0fniCdlmBQr-217">
          <mxGeometry width="40.00000000000023" height="32" as="geometry">
            <mxRectangle width="40.00000000000023" height="32" as="alternateBounds" />
          </mxGeometry>
        </mxCell>
        <mxCell id="FiXkTNru_0fniCdlmBQr-219" value="thumbnail" style="shape=partialRectangle;connectable=0;fillColor=none;top=0;left=0;bottom=0;right=0;align=left;spacingLeft=6;overflow=hidden;" vertex="1" parent="FiXkTNru_0fniCdlmBQr-217">
          <mxGeometry x="40.00000000000023" width="139.99999999999977" height="32" as="geometry">
            <mxRectangle width="139.99999999999977" height="32" as="alternateBounds" />
          </mxGeometry>
        </mxCell>
        <mxCell id="FiXkTNru_0fniCdlmBQr-220" value="" style="shape=tableRow;horizontal=0;startSize=0;swimlaneHead=0;swimlaneBody=0;fillColor=none;collapsible=0;dropTarget=0;points=[[0,0.5],[1,0.5]];portConstraint=eastwest;top=0;left=0;right=0;bottom=0;" vertex="1" parent="FiXkTNru_0fniCdlmBQr-186">
          <mxGeometry y="193" width="180" height="32" as="geometry" />
        </mxCell>
        <mxCell id="FiXkTNru_0fniCdlmBQr-221" value="json" style="shape=partialRectangle;connectable=0;fillColor=none;top=0;left=0;bottom=0;right=0;editable=1;overflow=hidden;" vertex="1" parent="FiXkTNru_0fniCdlmBQr-220">
          <mxGeometry width="40.00000000000023" height="32" as="geometry">
            <mxRectangle width="40.00000000000023" height="32" as="alternateBounds" />
          </mxGeometry>
        </mxCell>
        <mxCell id="FiXkTNru_0fniCdlmBQr-222" value="data" style="shape=partialRectangle;connectable=0;fillColor=none;top=0;left=0;bottom=0;right=0;align=left;spacingLeft=6;overflow=hidden;" vertex="1" parent="FiXkTNru_0fniCdlmBQr-220">
          <mxGeometry x="40.00000000000023" width="139.99999999999977" height="32" as="geometry">
            <mxRectangle width="139.99999999999977" height="32" as="alternateBounds" />
          </mxGeometry>
        </mxCell>
        <mxCell id="FiXkTNru_0fniCdlmBQr-208" value="" style="shape=tableRow;horizontal=0;startSize=0;swimlaneHead=0;swimlaneBody=0;fillColor=none;collapsible=0;dropTarget=0;points=[[0,0.5],[1,0.5]];portConstraint=eastwest;top=0;left=0;right=0;bottom=0;" vertex="1" parent="FiXkTNru_0fniCdlmBQr-186">
          <mxGeometry y="225" width="180" height="32" as="geometry" />
        </mxCell>
        <mxCell id="FiXkTNru_0fniCdlmBQr-209" value="time8" style="shape=partialRectangle;connectable=0;fillColor=none;top=0;left=0;bottom=0;right=0;editable=1;overflow=hidden;" vertex="1" parent="FiXkTNru_0fniCdlmBQr-208">
          <mxGeometry width="40.00000000000023" height="32" as="geometry">
            <mxRectangle width="40.00000000000023" height="32" as="alternateBounds" />
          </mxGeometry>
        </mxCell>
        <mxCell id="FiXkTNru_0fniCdlmBQr-210" value="created_datetime_utc" style="shape=partialRectangle;connectable=0;fillColor=none;top=0;left=0;bottom=0;right=0;align=left;spacingLeft=6;overflow=hidden;" vertex="1" parent="FiXkTNru_0fniCdlmBQr-208">
          <mxGeometry x="40.00000000000023" width="139.99999999999977" height="32" as="geometry">
            <mxRectangle width="139.99999999999977" height="32" as="alternateBounds" />
          </mxGeometry>
        </mxCell>
        <mxCell id="FiXkTNru_0fniCdlmBQr-211" value="" style="shape=tableRow;horizontal=0;startSize=0;swimlaneHead=0;swimlaneBody=0;fillColor=none;collapsible=0;dropTarget=0;points=[[0,0.5],[1,0.5]];portConstraint=eastwest;top=0;left=0;right=0;bottom=0;" vertex="1" parent="FiXkTNru_0fniCdlmBQr-186">
          <mxGeometry y="257" width="180" height="32" as="geometry" />
        </mxCell>
        <mxCell id="FiXkTNru_0fniCdlmBQr-212" value="time8" style="shape=partialRectangle;connectable=0;fillColor=none;top=0;left=0;bottom=0;right=0;editable=1;overflow=hidden;" vertex="1" parent="FiXkTNru_0fniCdlmBQr-211">
          <mxGeometry width="40.00000000000023" height="32" as="geometry">
            <mxRectangle width="40.00000000000023" height="32" as="alternateBounds" />
          </mxGeometry>
        </mxCell>
        <mxCell id="FiXkTNru_0fniCdlmBQr-213" value="updated_datetime_utc" style="shape=partialRectangle;connectable=0;fillColor=none;top=0;left=0;bottom=0;right=0;align=left;spacingLeft=6;overflow=hidden;" vertex="1" parent="FiXkTNru_0fniCdlmBQr-211">
          <mxGeometry x="40.00000000000023" width="139.99999999999977" height="32" as="geometry">
            <mxRectangle width="139.99999999999977" height="32" as="alternateBounds" />
          </mxGeometry>
        </mxCell>
        <mxCell id="FiXkTNru_0fniCdlmBQr-214" value="" style="shape=tableRow;horizontal=0;startSize=0;swimlaneHead=0;swimlaneBody=0;fillColor=none;collapsible=0;dropTarget=0;points=[[0,0.5],[1,0.5]];portConstraint=eastwest;top=0;left=0;right=0;bottom=0;" vertex="1" parent="FiXkTNru_0fniCdlmBQr-186">
          <mxGeometry y="289" width="180" height="32" as="geometry" />
        </mxCell>
        <mxCell id="FiXkTNru_0fniCdlmBQr-215" value="bool" style="shape=partialRectangle;connectable=0;fillColor=none;top=0;left=0;bottom=0;right=0;editable=1;overflow=hidden;" vertex="1" parent="FiXkTNru_0fniCdlmBQr-214">
          <mxGeometry width="40.00000000000023" height="32" as="geometry">
            <mxRectangle width="40.00000000000023" height="32" as="alternateBounds" />
          </mxGeometry>
        </mxCell>
        <mxCell id="FiXkTNru_0fniCdlmBQr-216" value="active" style="shape=partialRectangle;connectable=0;fillColor=none;top=0;left=0;bottom=0;right=0;align=left;spacingLeft=6;overflow=hidden;" vertex="1" parent="FiXkTNru_0fniCdlmBQr-214">
          <mxGeometry x="40.00000000000023" width="139.99999999999977" height="32" as="geometry">
            <mxRectangle width="139.99999999999977" height="32" as="alternateBounds" />
          </mxGeometry>
        </mxCell>
        <mxCell id="FiXkTNru_0fniCdlmBQr-223" value="tbl_template" style="shape=table;startSize=30;container=1;collapsible=1;childLayout=tableLayout;fixedRows=1;rowLines=0;fontStyle=1;align=center;resizeLast=1;fillColor=#fff2cc;strokeColor=#d6b656;rounded=1;shadow=0;swimlaneLine=1;sketch=0;columnLines=1;" vertex="1" parent="1">
          <mxGeometry x="1000" y="280" width="180" height="384" as="geometry" />
        </mxCell>
        <mxCell id="FiXkTNru_0fniCdlmBQr-224" value="" style="shape=tableRow;horizontal=0;startSize=0;swimlaneHead=0;swimlaneBody=0;fillColor=none;collapsible=0;dropTarget=0;points=[[0,0.5],[1,0.5]];portConstraint=eastwest;top=0;left=0;right=0;bottom=1;" vertex="1" parent="FiXkTNru_0fniCdlmBQr-223">
          <mxGeometry y="30" width="180" height="33" as="geometry" />
        </mxCell>
        <mxCell id="FiXkTNru_0fniCdlmBQr-225" value="PK" style="shape=partialRectangle;connectable=0;fillColor=none;top=0;left=0;bottom=0;right=0;fontStyle=1;overflow=hidden;" vertex="1" parent="FiXkTNru_0fniCdlmBQr-224">
          <mxGeometry width="40.00000000000023" height="33" as="geometry">
            <mxRectangle width="40.00000000000023" height="33" as="alternateBounds" />
          </mxGeometry>
        </mxCell>
        <mxCell id="FiXkTNru_0fniCdlmBQr-226" value="id" style="shape=partialRectangle;connectable=0;fillColor=none;top=0;left=0;bottom=0;right=0;align=left;spacingLeft=6;fontStyle=5;overflow=hidden;" vertex="1" parent="FiXkTNru_0fniCdlmBQr-224">
          <mxGeometry x="40.00000000000023" width="139.99999999999977" height="33" as="geometry">
            <mxRectangle width="139.99999999999977" height="33" as="alternateBounds" />
          </mxGeometry>
        </mxCell>
        <mxCell id="FiXkTNru_0fniCdlmBQr-396" value="" style="shape=tableRow;horizontal=0;startSize=0;swimlaneHead=0;swimlaneBody=0;fillColor=none;collapsible=0;dropTarget=0;points=[[0,0.5],[1,0.5]];portConstraint=eastwest;top=0;left=0;right=0;bottom=1;" vertex="1" parent="FiXkTNru_0fniCdlmBQr-223">
          <mxGeometry y="63" width="180" height="33" as="geometry" />
        </mxCell>
        <mxCell id="FiXkTNru_0fniCdlmBQr-397" value="FK" style="shape=partialRectangle;connectable=0;fillColor=none;top=0;left=0;bottom=0;right=0;fontStyle=1;overflow=hidden;" vertex="1" parent="FiXkTNru_0fniCdlmBQr-396">
          <mxGeometry width="40.00000000000023" height="33" as="geometry">
            <mxRectangle width="40.00000000000023" height="33" as="alternateBounds" />
          </mxGeometry>
        </mxCell>
        <mxCell id="FiXkTNru_0fniCdlmBQr-398" value="category_id" style="shape=partialRectangle;connectable=0;fillColor=none;top=0;left=0;bottom=0;right=0;align=left;spacingLeft=6;fontStyle=5;overflow=hidden;" vertex="1" parent="FiXkTNru_0fniCdlmBQr-396">
          <mxGeometry x="40.00000000000023" width="139.99999999999977" height="33" as="geometry">
            <mxRectangle width="139.99999999999977" height="33" as="alternateBounds" />
          </mxGeometry>
        </mxCell>
        <mxCell id="FiXkTNru_0fniCdlmBQr-227" value="" style="shape=tableRow;horizontal=0;startSize=0;swimlaneHead=0;swimlaneBody=0;fillColor=none;collapsible=0;dropTarget=0;points=[[0,0.5],[1,0.5]];portConstraint=eastwest;top=0;left=0;right=0;bottom=0;" vertex="1" parent="FiXkTNru_0fniCdlmBQr-223">
          <mxGeometry y="96" width="180" height="32" as="geometry" />
        </mxCell>
        <mxCell id="FiXkTNru_0fniCdlmBQr-228" value="text" style="shape=partialRectangle;connectable=0;fillColor=none;top=0;left=0;bottom=0;right=0;editable=1;overflow=hidden;" vertex="1" parent="FiXkTNru_0fniCdlmBQr-227">
          <mxGeometry width="40.00000000000023" height="32" as="geometry">
            <mxRectangle width="40.00000000000023" height="32" as="alternateBounds" />
          </mxGeometry>
        </mxCell>
        <mxCell id="FiXkTNru_0fniCdlmBQr-229" value="name" style="shape=partialRectangle;connectable=0;fillColor=none;top=0;left=0;bottom=0;right=0;align=left;spacingLeft=6;overflow=hidden;" vertex="1" parent="FiXkTNru_0fniCdlmBQr-227">
          <mxGeometry x="40.00000000000023" width="139.99999999999977" height="32" as="geometry">
            <mxRectangle width="139.99999999999977" height="32" as="alternateBounds" />
          </mxGeometry>
        </mxCell>
        <mxCell id="FiXkTNru_0fniCdlmBQr-402" value="" style="shape=tableRow;horizontal=0;startSize=0;swimlaneHead=0;swimlaneBody=0;fillColor=none;collapsible=0;dropTarget=0;points=[[0,0.5],[1,0.5]];portConstraint=eastwest;top=0;left=0;right=0;bottom=0;" vertex="1" parent="FiXkTNru_0fniCdlmBQr-223">
          <mxGeometry y="128" width="180" height="32" as="geometry" />
        </mxCell>
        <mxCell id="FiXkTNru_0fniCdlmBQr-403" value="text" style="shape=partialRectangle;connectable=0;fillColor=none;top=0;left=0;bottom=0;right=0;editable=1;overflow=hidden;" vertex="1" parent="FiXkTNru_0fniCdlmBQr-402">
          <mxGeometry width="40.00000000000023" height="32" as="geometry">
            <mxRectangle width="40.00000000000023" height="32" as="alternateBounds" />
          </mxGeometry>
        </mxCell>
        <mxCell id="FiXkTNru_0fniCdlmBQr-404" value="query_term" style="shape=partialRectangle;connectable=0;fillColor=none;top=0;left=0;bottom=0;right=0;align=left;spacingLeft=6;overflow=hidden;" vertex="1" parent="FiXkTNru_0fniCdlmBQr-402">
          <mxGeometry x="40.00000000000023" width="139.99999999999977" height="32" as="geometry">
            <mxRectangle width="139.99999999999977" height="32" as="alternateBounds" />
          </mxGeometry>
        </mxCell>
        <mxCell id="FiXkTNru_0fniCdlmBQr-292" value="" style="shape=tableRow;horizontal=0;startSize=0;swimlaneHead=0;swimlaneBody=0;fillColor=none;collapsible=0;dropTarget=0;points=[[0,0.5],[1,0.5]];portConstraint=eastwest;top=0;left=0;right=0;bottom=0;" vertex="1" parent="FiXkTNru_0fniCdlmBQr-223">
          <mxGeometry y="160" width="180" height="32" as="geometry" />
        </mxCell>
        <mxCell id="FiXkTNru_0fniCdlmBQr-293" value="text?" style="shape=partialRectangle;connectable=0;fillColor=none;top=0;left=0;bottom=0;right=0;editable=1;overflow=hidden;" vertex="1" parent="FiXkTNru_0fniCdlmBQr-292">
          <mxGeometry width="40.00000000000023" height="32" as="geometry">
            <mxRectangle width="40.00000000000023" height="32" as="alternateBounds" />
          </mxGeometry>
        </mxCell>
        <mxCell id="FiXkTNru_0fniCdlmBQr-294" value="description" style="shape=partialRectangle;connectable=0;fillColor=none;top=0;left=0;bottom=0;right=0;align=left;spacingLeft=6;overflow=hidden;" vertex="1" parent="FiXkTNru_0fniCdlmBQr-292">
          <mxGeometry x="40.00000000000023" width="139.99999999999977" height="32" as="geometry">
            <mxRectangle width="139.99999999999977" height="32" as="alternateBounds" />
          </mxGeometry>
        </mxCell>
        <mxCell id="FiXkTNru_0fniCdlmBQr-230" value="" style="shape=tableRow;horizontal=0;startSize=0;swimlaneHead=0;swimlaneBody=0;fillColor=none;collapsible=0;dropTarget=0;points=[[0,0.5],[1,0.5]];portConstraint=eastwest;top=0;left=0;right=0;bottom=0;" vertex="1" parent="FiXkTNru_0fniCdlmBQr-223">
          <mxGeometry y="192" width="180" height="32" as="geometry" />
        </mxCell>
        <mxCell id="FiXkTNru_0fniCdlmBQr-231" value="text?" style="shape=partialRectangle;connectable=0;fillColor=none;top=0;left=0;bottom=0;right=0;editable=1;overflow=hidden;" vertex="1" parent="FiXkTNru_0fniCdlmBQr-230">
          <mxGeometry width="40.00000000000023" height="32" as="geometry">
            <mxRectangle width="40.00000000000023" height="32" as="alternateBounds" />
          </mxGeometry>
        </mxCell>
        <mxCell id="FiXkTNru_0fniCdlmBQr-232" value="thumbnail" style="shape=partialRectangle;connectable=0;fillColor=none;top=0;left=0;bottom=0;right=0;align=left;spacingLeft=6;overflow=hidden;" vertex="1" parent="FiXkTNru_0fniCdlmBQr-230">
          <mxGeometry x="40.00000000000023" width="139.99999999999977" height="32" as="geometry">
            <mxRectangle width="139.99999999999977" height="32" as="alternateBounds" />
          </mxGeometry>
        </mxCell>
        <mxCell id="FiXkTNru_0fniCdlmBQr-233" value="" style="shape=tableRow;horizontal=0;startSize=0;swimlaneHead=0;swimlaneBody=0;fillColor=none;collapsible=0;dropTarget=0;points=[[0,0.5],[1,0.5]];portConstraint=eastwest;top=0;left=0;right=0;bottom=0;" vertex="1" parent="FiXkTNru_0fniCdlmBQr-223">
          <mxGeometry y="224" width="180" height="32" as="geometry" />
        </mxCell>
        <mxCell id="FiXkTNru_0fniCdlmBQr-234" value="text" style="shape=partialRectangle;connectable=0;fillColor=none;top=0;left=0;bottom=0;right=0;editable=1;overflow=hidden;" vertex="1" parent="FiXkTNru_0fniCdlmBQr-233">
          <mxGeometry width="40.00000000000023" height="32" as="geometry">
            <mxRectangle width="40.00000000000023" height="32" as="alternateBounds" />
          </mxGeometry>
        </mxCell>
        <mxCell id="FiXkTNru_0fniCdlmBQr-235" value="key" style="shape=partialRectangle;connectable=0;fillColor=none;top=0;left=0;bottom=0;right=0;align=left;spacingLeft=6;overflow=hidden;" vertex="1" parent="FiXkTNru_0fniCdlmBQr-233">
          <mxGeometry x="40.00000000000023" width="139.99999999999977" height="32" as="geometry">
            <mxRectangle width="139.99999999999977" height="32" as="alternateBounds" />
          </mxGeometry>
        </mxCell>
        <mxCell id="FiXkTNru_0fniCdlmBQr-399" value="" style="shape=tableRow;horizontal=0;startSize=0;swimlaneHead=0;swimlaneBody=0;fillColor=none;collapsible=0;dropTarget=0;points=[[0,0.5],[1,0.5]];portConstraint=eastwest;top=0;left=0;right=0;bottom=0;" vertex="1" parent="FiXkTNru_0fniCdlmBQr-223">
          <mxGeometry y="256" width="180" height="32" as="geometry" />
        </mxCell>
        <mxCell id="FiXkTNru_0fniCdlmBQr-400" value="real" style="shape=partialRectangle;connectable=0;fillColor=none;top=0;left=0;bottom=0;right=0;editable=1;overflow=hidden;" vertex="1" parent="FiXkTNru_0fniCdlmBQr-399">
          <mxGeometry width="40.00000000000023" height="32" as="geometry">
            <mxRectangle width="40.00000000000023" height="32" as="alternateBounds" />
          </mxGeometry>
        </mxCell>
        <mxCell id="FiXkTNru_0fniCdlmBQr-401" value="weight" style="shape=partialRectangle;connectable=0;fillColor=none;top=0;left=0;bottom=0;right=0;align=left;spacingLeft=6;overflow=hidden;" vertex="1" parent="FiXkTNru_0fniCdlmBQr-399">
          <mxGeometry x="40.00000000000023" width="139.99999999999977" height="32" as="geometry">
            <mxRectangle width="139.99999999999977" height="32" as="alternateBounds" />
          </mxGeometry>
        </mxCell>
        <mxCell id="FiXkTNru_0fniCdlmBQr-236" value="" style="shape=tableRow;horizontal=0;startSize=0;swimlaneHead=0;swimlaneBody=0;fillColor=none;collapsible=0;dropTarget=0;points=[[0,0.5],[1,0.5]];portConstraint=eastwest;top=0;left=0;right=0;bottom=0;" vertex="1" parent="FiXkTNru_0fniCdlmBQr-223">
          <mxGeometry y="288" width="180" height="32" as="geometry" />
        </mxCell>
        <mxCell id="FiXkTNru_0fniCdlmBQr-237" value="time8" style="shape=partialRectangle;connectable=0;fillColor=none;top=0;left=0;bottom=0;right=0;editable=1;overflow=hidden;" vertex="1" parent="FiXkTNru_0fniCdlmBQr-236">
          <mxGeometry width="40.00000000000023" height="32" as="geometry">
            <mxRectangle width="40.00000000000023" height="32" as="alternateBounds" />
          </mxGeometry>
        </mxCell>
        <mxCell id="FiXkTNru_0fniCdlmBQr-238" value="created_datetime_utc" style="shape=partialRectangle;connectable=0;fillColor=none;top=0;left=0;bottom=0;right=0;align=left;spacingLeft=6;overflow=hidden;" vertex="1" parent="FiXkTNru_0fniCdlmBQr-236">
          <mxGeometry x="40.00000000000023" width="139.99999999999977" height="32" as="geometry">
            <mxRectangle width="139.99999999999977" height="32" as="alternateBounds" />
          </mxGeometry>
        </mxCell>
        <mxCell id="FiXkTNru_0fniCdlmBQr-239" value="" style="shape=tableRow;horizontal=0;startSize=0;swimlaneHead=0;swimlaneBody=0;fillColor=none;collapsible=0;dropTarget=0;points=[[0,0.5],[1,0.5]];portConstraint=eastwest;top=0;left=0;right=0;bottom=0;" vertex="1" parent="FiXkTNru_0fniCdlmBQr-223">
          <mxGeometry y="320" width="180" height="32" as="geometry" />
        </mxCell>
        <mxCell id="FiXkTNru_0fniCdlmBQr-240" value="time8" style="shape=partialRectangle;connectable=0;fillColor=none;top=0;left=0;bottom=0;right=0;editable=1;overflow=hidden;" vertex="1" parent="FiXkTNru_0fniCdlmBQr-239">
          <mxGeometry width="40.00000000000023" height="32" as="geometry">
            <mxRectangle width="40.00000000000023" height="32" as="alternateBounds" />
          </mxGeometry>
        </mxCell>
        <mxCell id="FiXkTNru_0fniCdlmBQr-241" value="updated_datetime_utc" style="shape=partialRectangle;connectable=0;fillColor=none;top=0;left=0;bottom=0;right=0;align=left;spacingLeft=6;overflow=hidden;" vertex="1" parent="FiXkTNru_0fniCdlmBQr-239">
          <mxGeometry x="40.00000000000023" width="139.99999999999977" height="32" as="geometry">
            <mxRectangle width="139.99999999999977" height="32" as="alternateBounds" />
          </mxGeometry>
        </mxCell>
        <mxCell id="FiXkTNru_0fniCdlmBQr-242" value="" style="shape=tableRow;horizontal=0;startSize=0;swimlaneHead=0;swimlaneBody=0;fillColor=none;collapsible=0;dropTarget=0;points=[[0,0.5],[1,0.5]];portConstraint=eastwest;top=0;left=0;right=0;bottom=0;" vertex="1" parent="FiXkTNru_0fniCdlmBQr-223">
          <mxGeometry y="352" width="180" height="32" as="geometry" />
        </mxCell>
        <mxCell id="FiXkTNru_0fniCdlmBQr-243" value="bool" style="shape=partialRectangle;connectable=0;fillColor=none;top=0;left=0;bottom=0;right=0;editable=1;overflow=hidden;" vertex="1" parent="FiXkTNru_0fniCdlmBQr-242">
          <mxGeometry width="40.00000000000023" height="32" as="geometry">
            <mxRectangle width="40.00000000000023" height="32" as="alternateBounds" />
          </mxGeometry>
        </mxCell>
        <mxCell id="FiXkTNru_0fniCdlmBQr-244" value="active" style="shape=partialRectangle;connectable=0;fillColor=none;top=0;left=0;bottom=0;right=0;align=left;spacingLeft=6;overflow=hidden;" vertex="1" parent="FiXkTNru_0fniCdlmBQr-242">
          <mxGeometry x="40.00000000000023" width="139.99999999999977" height="32" as="geometry">
            <mxRectangle width="139.99999999999977" height="32" as="alternateBounds" />
          </mxGeometry>
        </mxCell>
        <mxCell id="FiXkTNru_0fniCdlmBQr-245" value="tbl_category" style="shape=table;startSize=30;container=1;collapsible=1;childLayout=tableLayout;fixedRows=1;rowLines=0;fontStyle=1;align=center;resizeLast=1;fillColor=#f8cecc;strokeColor=#b85450;rounded=1;shadow=0;swimlaneLine=1;sketch=0;columnLines=1;" vertex="1" parent="1">
          <mxGeometry x="1000" y="720" width="180" height="223" as="geometry" />
        </mxCell>
        <mxCell id="FiXkTNru_0fniCdlmBQr-246" value="" style="shape=tableRow;horizontal=0;startSize=0;swimlaneHead=0;swimlaneBody=0;fillColor=none;collapsible=0;dropTarget=0;points=[[0,0.5],[1,0.5]];portConstraint=eastwest;top=0;left=0;right=0;bottom=1;" vertex="1" parent="FiXkTNru_0fniCdlmBQr-245">
          <mxGeometry y="30" width="180" height="33" as="geometry" />
        </mxCell>
        <mxCell id="FiXkTNru_0fniCdlmBQr-247" value="PK" style="shape=partialRectangle;connectable=0;fillColor=none;top=0;left=0;bottom=0;right=0;fontStyle=1;overflow=hidden;" vertex="1" parent="FiXkTNru_0fniCdlmBQr-246">
          <mxGeometry width="40.00000000000023" height="33" as="geometry">
            <mxRectangle width="40.00000000000023" height="33" as="alternateBounds" />
          </mxGeometry>
        </mxCell>
        <mxCell id="FiXkTNru_0fniCdlmBQr-248" value="id" style="shape=partialRectangle;connectable=0;fillColor=none;top=0;left=0;bottom=0;right=0;align=left;spacingLeft=6;fontStyle=5;overflow=hidden;" vertex="1" parent="FiXkTNru_0fniCdlmBQr-246">
          <mxGeometry x="40.00000000000023" width="139.99999999999977" height="33" as="geometry">
            <mxRectangle width="139.99999999999977" height="33" as="alternateBounds" />
          </mxGeometry>
        </mxCell>
        <mxCell id="FiXkTNru_0fniCdlmBQr-249" value="" style="shape=tableRow;horizontal=0;startSize=0;swimlaneHead=0;swimlaneBody=0;fillColor=none;collapsible=0;dropTarget=0;points=[[0,0.5],[1,0.5]];portConstraint=eastwest;top=0;left=0;right=0;bottom=0;" vertex="1" parent="FiXkTNru_0fniCdlmBQr-245">
          <mxGeometry y="63" width="180" height="32" as="geometry" />
        </mxCell>
        <mxCell id="FiXkTNru_0fniCdlmBQr-250" value="text" style="shape=partialRectangle;connectable=0;fillColor=none;top=0;left=0;bottom=0;right=0;editable=1;overflow=hidden;" vertex="1" parent="FiXkTNru_0fniCdlmBQr-249">
          <mxGeometry width="40.00000000000023" height="32" as="geometry">
            <mxRectangle width="40.00000000000023" height="32" as="alternateBounds" />
          </mxGeometry>
        </mxCell>
        <mxCell id="FiXkTNru_0fniCdlmBQr-251" value="name" style="shape=partialRectangle;connectable=0;fillColor=none;top=0;left=0;bottom=0;right=0;align=left;spacingLeft=6;overflow=hidden;" vertex="1" parent="FiXkTNru_0fniCdlmBQr-249">
          <mxGeometry x="40.00000000000023" width="139.99999999999977" height="32" as="geometry">
            <mxRectangle width="139.99999999999977" height="32" as="alternateBounds" />
          </mxGeometry>
        </mxCell>
        <mxCell id="FiXkTNru_0fniCdlmBQr-252" value="" style="shape=tableRow;horizontal=0;startSize=0;swimlaneHead=0;swimlaneBody=0;fillColor=none;collapsible=0;dropTarget=0;points=[[0,0.5],[1,0.5]];portConstraint=eastwest;top=0;left=0;right=0;bottom=0;" vertex="1" parent="FiXkTNru_0fniCdlmBQr-245">
          <mxGeometry y="95" width="180" height="32" as="geometry" />
        </mxCell>
        <mxCell id="FiXkTNru_0fniCdlmBQr-253" value="text?" style="shape=partialRectangle;connectable=0;fillColor=none;top=0;left=0;bottom=0;right=0;editable=1;overflow=hidden;" vertex="1" parent="FiXkTNru_0fniCdlmBQr-252">
          <mxGeometry width="40.00000000000023" height="32" as="geometry">
            <mxRectangle width="40.00000000000023" height="32" as="alternateBounds" />
          </mxGeometry>
        </mxCell>
        <mxCell id="FiXkTNru_0fniCdlmBQr-254" value="description" style="shape=partialRectangle;connectable=0;fillColor=none;top=0;left=0;bottom=0;right=0;align=left;spacingLeft=6;overflow=hidden;" vertex="1" parent="FiXkTNru_0fniCdlmBQr-252">
          <mxGeometry x="40.00000000000023" width="139.99999999999977" height="32" as="geometry">
            <mxRectangle width="139.99999999999977" height="32" as="alternateBounds" />
          </mxGeometry>
        </mxCell>
        <mxCell id="FiXkTNru_0fniCdlmBQr-258" value="" style="shape=tableRow;horizontal=0;startSize=0;swimlaneHead=0;swimlaneBody=0;fillColor=none;collapsible=0;dropTarget=0;points=[[0,0.5],[1,0.5]];portConstraint=eastwest;top=0;left=0;right=0;bottom=0;" vertex="1" parent="FiXkTNru_0fniCdlmBQr-245">
          <mxGeometry y="127" width="180" height="32" as="geometry" />
        </mxCell>
        <mxCell id="FiXkTNru_0fniCdlmBQr-259" value="time8" style="shape=partialRectangle;connectable=0;fillColor=none;top=0;left=0;bottom=0;right=0;editable=1;overflow=hidden;" vertex="1" parent="FiXkTNru_0fniCdlmBQr-258">
          <mxGeometry width="40.00000000000023" height="32" as="geometry">
            <mxRectangle width="40.00000000000023" height="32" as="alternateBounds" />
          </mxGeometry>
        </mxCell>
        <mxCell id="FiXkTNru_0fniCdlmBQr-260" value="created_datetime_utc" style="shape=partialRectangle;connectable=0;fillColor=none;top=0;left=0;bottom=0;right=0;align=left;spacingLeft=6;overflow=hidden;" vertex="1" parent="FiXkTNru_0fniCdlmBQr-258">
          <mxGeometry x="40.00000000000023" width="139.99999999999977" height="32" as="geometry">
            <mxRectangle width="139.99999999999977" height="32" as="alternateBounds" />
          </mxGeometry>
        </mxCell>
        <mxCell id="FiXkTNru_0fniCdlmBQr-261" value="" style="shape=tableRow;horizontal=0;startSize=0;swimlaneHead=0;swimlaneBody=0;fillColor=none;collapsible=0;dropTarget=0;points=[[0,0.5],[1,0.5]];portConstraint=eastwest;top=0;left=0;right=0;bottom=0;" vertex="1" parent="FiXkTNru_0fniCdlmBQr-245">
          <mxGeometry y="159" width="180" height="32" as="geometry" />
        </mxCell>
        <mxCell id="FiXkTNru_0fniCdlmBQr-262" value="time8" style="shape=partialRectangle;connectable=0;fillColor=none;top=0;left=0;bottom=0;right=0;editable=1;overflow=hidden;" vertex="1" parent="FiXkTNru_0fniCdlmBQr-261">
          <mxGeometry width="40.00000000000023" height="32" as="geometry">
            <mxRectangle width="40.00000000000023" height="32" as="alternateBounds" />
          </mxGeometry>
        </mxCell>
        <mxCell id="FiXkTNru_0fniCdlmBQr-263" value="updated_datetime_utc" style="shape=partialRectangle;connectable=0;fillColor=none;top=0;left=0;bottom=0;right=0;align=left;spacingLeft=6;overflow=hidden;" vertex="1" parent="FiXkTNru_0fniCdlmBQr-261">
          <mxGeometry x="40.00000000000023" width="139.99999999999977" height="32" as="geometry">
            <mxRectangle width="139.99999999999977" height="32" as="alternateBounds" />
          </mxGeometry>
        </mxCell>
        <mxCell id="FiXkTNru_0fniCdlmBQr-264" value="" style="shape=tableRow;horizontal=0;startSize=0;swimlaneHead=0;swimlaneBody=0;fillColor=none;collapsible=0;dropTarget=0;points=[[0,0.5],[1,0.5]];portConstraint=eastwest;top=0;left=0;right=0;bottom=0;" vertex="1" parent="FiXkTNru_0fniCdlmBQr-245">
          <mxGeometry y="191" width="180" height="32" as="geometry" />
        </mxCell>
        <mxCell id="FiXkTNru_0fniCdlmBQr-265" value="bool" style="shape=partialRectangle;connectable=0;fillColor=none;top=0;left=0;bottom=0;right=0;editable=1;overflow=hidden;" vertex="1" parent="FiXkTNru_0fniCdlmBQr-264">
          <mxGeometry width="40.00000000000023" height="32" as="geometry">
            <mxRectangle width="40.00000000000023" height="32" as="alternateBounds" />
          </mxGeometry>
        </mxCell>
        <mxCell id="FiXkTNru_0fniCdlmBQr-266" value="active" style="shape=partialRectangle;connectable=0;fillColor=none;top=0;left=0;bottom=0;right=0;align=left;spacingLeft=6;overflow=hidden;" vertex="1" parent="FiXkTNru_0fniCdlmBQr-264">
          <mxGeometry x="40.00000000000023" width="139.99999999999977" height="32" as="geometry">
            <mxRectangle width="139.99999999999977" height="32" as="alternateBounds" />
          </mxGeometry>
        </mxCell>
        <mxCell id="FiXkTNru_0fniCdlmBQr-267" value="tbl_keyword" style="shape=table;startSize=30;container=1;collapsible=1;childLayout=tableLayout;fixedRows=1;rowLines=0;fontStyle=1;align=center;resizeLast=1;fillColor=#f8cecc;strokeColor=#b85450;rounded=1;shadow=0;swimlaneLine=1;sketch=0;columnLines=1;" vertex="1" parent="1">
          <mxGeometry x="1000" y="1000" width="180" height="288" as="geometry" />
        </mxCell>
        <mxCell id="FiXkTNru_0fniCdlmBQr-268" value="" style="shape=tableRow;horizontal=0;startSize=0;swimlaneHead=0;swimlaneBody=0;fillColor=none;collapsible=0;dropTarget=0;points=[[0,0.5],[1,0.5]];portConstraint=eastwest;top=0;left=0;right=0;bottom=1;" vertex="1" parent="FiXkTNru_0fniCdlmBQr-267">
          <mxGeometry y="30" width="180" height="33" as="geometry" />
        </mxCell>
        <mxCell id="FiXkTNru_0fniCdlmBQr-269" value="PK" style="shape=partialRectangle;connectable=0;fillColor=none;top=0;left=0;bottom=0;right=0;fontStyle=1;overflow=hidden;" vertex="1" parent="FiXkTNru_0fniCdlmBQr-268">
          <mxGeometry width="40.00000000000023" height="33" as="geometry">
            <mxRectangle width="40.00000000000023" height="33" as="alternateBounds" />
          </mxGeometry>
        </mxCell>
        <mxCell id="FiXkTNru_0fniCdlmBQr-270" value="id" style="shape=partialRectangle;connectable=0;fillColor=none;top=0;left=0;bottom=0;right=0;align=left;spacingLeft=6;fontStyle=5;overflow=hidden;" vertex="1" parent="FiXkTNru_0fniCdlmBQr-268">
          <mxGeometry x="40.00000000000023" width="139.99999999999977" height="33" as="geometry">
            <mxRectangle width="139.99999999999977" height="33" as="alternateBounds" />
          </mxGeometry>
        </mxCell>
        <mxCell id="FiXkTNru_0fniCdlmBQr-304" value="" style="shape=tableRow;horizontal=0;startSize=0;swimlaneHead=0;swimlaneBody=0;fillColor=none;collapsible=0;dropTarget=0;points=[[0,0.5],[1,0.5]];portConstraint=eastwest;top=0;left=0;right=0;bottom=1;" vertex="1" parent="FiXkTNru_0fniCdlmBQr-267">
          <mxGeometry y="63" width="180" height="33" as="geometry" />
        </mxCell>
        <mxCell id="FiXkTNru_0fniCdlmBQr-305" value="FK" style="shape=partialRectangle;connectable=0;fillColor=none;top=0;left=0;bottom=0;right=0;fontStyle=1;overflow=hidden;" vertex="1" parent="FiXkTNru_0fniCdlmBQr-304">
          <mxGeometry width="40.00000000000023" height="33" as="geometry">
            <mxRectangle width="40.00000000000023" height="33" as="alternateBounds" />
          </mxGeometry>
        </mxCell>
        <mxCell id="FiXkTNru_0fniCdlmBQr-306" value="category_id" style="shape=partialRectangle;connectable=0;fillColor=none;top=0;left=0;bottom=0;right=0;align=left;spacingLeft=6;fontStyle=5;overflow=hidden;" vertex="1" parent="FiXkTNru_0fniCdlmBQr-304">
          <mxGeometry x="40.00000000000023" width="139.99999999999977" height="33" as="geometry">
            <mxRectangle width="139.99999999999977" height="33" as="alternateBounds" />
          </mxGeometry>
        </mxCell>
        <mxCell id="FiXkTNru_0fniCdlmBQr-271" value="" style="shape=tableRow;horizontal=0;startSize=0;swimlaneHead=0;swimlaneBody=0;fillColor=none;collapsible=0;dropTarget=0;points=[[0,0.5],[1,0.5]];portConstraint=eastwest;top=0;left=0;right=0;bottom=0;" vertex="1" parent="FiXkTNru_0fniCdlmBQr-267">
          <mxGeometry y="96" width="180" height="32" as="geometry" />
        </mxCell>
        <mxCell id="FiXkTNru_0fniCdlmBQr-272" value="text" style="shape=partialRectangle;connectable=0;fillColor=none;top=0;left=0;bottom=0;right=0;editable=1;overflow=hidden;" vertex="1" parent="FiXkTNru_0fniCdlmBQr-271">
          <mxGeometry width="40.00000000000023" height="32" as="geometry">
            <mxRectangle width="40.00000000000023" height="32" as="alternateBounds" />
          </mxGeometry>
        </mxCell>
        <mxCell id="FiXkTNru_0fniCdlmBQr-273" value="name" style="shape=partialRectangle;connectable=0;fillColor=none;top=0;left=0;bottom=0;right=0;align=left;spacingLeft=6;overflow=hidden;" vertex="1" parent="FiXkTNru_0fniCdlmBQr-271">
          <mxGeometry x="40.00000000000023" width="139.99999999999977" height="32" as="geometry">
            <mxRectangle width="139.99999999999977" height="32" as="alternateBounds" />
          </mxGeometry>
        </mxCell>
        <mxCell id="FiXkTNru_0fniCdlmBQr-274" value="" style="shape=tableRow;horizontal=0;startSize=0;swimlaneHead=0;swimlaneBody=0;fillColor=none;collapsible=0;dropTarget=0;points=[[0,0.5],[1,0.5]];portConstraint=eastwest;top=0;left=0;right=0;bottom=0;" vertex="1" parent="FiXkTNru_0fniCdlmBQr-267">
          <mxGeometry y="128" width="180" height="32" as="geometry" />
        </mxCell>
        <mxCell id="FiXkTNru_0fniCdlmBQr-275" value="text" style="shape=partialRectangle;connectable=0;fillColor=none;top=0;left=0;bottom=0;right=0;editable=1;overflow=hidden;" vertex="1" parent="FiXkTNru_0fniCdlmBQr-274">
          <mxGeometry width="40.00000000000023" height="32" as="geometry">
            <mxRectangle width="40.00000000000023" height="32" as="alternateBounds" />
          </mxGeometry>
        </mxCell>
        <mxCell id="FiXkTNru_0fniCdlmBQr-276" value="query_term" style="shape=partialRectangle;connectable=0;fillColor=none;top=0;left=0;bottom=0;right=0;align=left;spacingLeft=6;overflow=hidden;" vertex="1" parent="FiXkTNru_0fniCdlmBQr-274">
          <mxGeometry x="40.00000000000023" width="139.99999999999977" height="32" as="geometry">
            <mxRectangle width="139.99999999999977" height="32" as="alternateBounds" />
          </mxGeometry>
        </mxCell>
        <mxCell id="FiXkTNru_0fniCdlmBQr-286" value="" style="shape=tableRow;horizontal=0;startSize=0;swimlaneHead=0;swimlaneBody=0;fillColor=none;collapsible=0;dropTarget=0;points=[[0,0.5],[1,0.5]];portConstraint=eastwest;top=0;left=0;right=0;bottom=0;" vertex="1" parent="FiXkTNru_0fniCdlmBQr-267">
          <mxGeometry y="160" width="180" height="32" as="geometry" />
        </mxCell>
        <mxCell id="FiXkTNru_0fniCdlmBQr-287" value="real" style="shape=partialRectangle;connectable=0;fillColor=none;top=0;left=0;bottom=0;right=0;editable=1;overflow=hidden;" vertex="1" parent="FiXkTNru_0fniCdlmBQr-286">
          <mxGeometry width="40.00000000000023" height="32" as="geometry">
            <mxRectangle width="40.00000000000023" height="32" as="alternateBounds" />
          </mxGeometry>
        </mxCell>
        <mxCell id="FiXkTNru_0fniCdlmBQr-288" value="weight" style="shape=partialRectangle;connectable=0;fillColor=none;top=0;left=0;bottom=0;right=0;align=left;spacingLeft=6;overflow=hidden;" vertex="1" parent="FiXkTNru_0fniCdlmBQr-286">
          <mxGeometry x="40.00000000000023" width="139.99999999999977" height="32" as="geometry">
            <mxRectangle width="139.99999999999977" height="32" as="alternateBounds" />
          </mxGeometry>
        </mxCell>
        <mxCell id="FiXkTNru_0fniCdlmBQr-277" value="" style="shape=tableRow;horizontal=0;startSize=0;swimlaneHead=0;swimlaneBody=0;fillColor=none;collapsible=0;dropTarget=0;points=[[0,0.5],[1,0.5]];portConstraint=eastwest;top=0;left=0;right=0;bottom=0;" vertex="1" parent="FiXkTNru_0fniCdlmBQr-267">
          <mxGeometry y="192" width="180" height="32" as="geometry" />
        </mxCell>
        <mxCell id="FiXkTNru_0fniCdlmBQr-278" value="time8" style="shape=partialRectangle;connectable=0;fillColor=none;top=0;left=0;bottom=0;right=0;editable=1;overflow=hidden;" vertex="1" parent="FiXkTNru_0fniCdlmBQr-277">
          <mxGeometry width="40.00000000000023" height="32" as="geometry">
            <mxRectangle width="40.00000000000023" height="32" as="alternateBounds" />
          </mxGeometry>
        </mxCell>
        <mxCell id="FiXkTNru_0fniCdlmBQr-279" value="created_datetime_utc" style="shape=partialRectangle;connectable=0;fillColor=none;top=0;left=0;bottom=0;right=0;align=left;spacingLeft=6;overflow=hidden;" vertex="1" parent="FiXkTNru_0fniCdlmBQr-277">
          <mxGeometry x="40.00000000000023" width="139.99999999999977" height="32" as="geometry">
            <mxRectangle width="139.99999999999977" height="32" as="alternateBounds" />
          </mxGeometry>
        </mxCell>
        <mxCell id="FiXkTNru_0fniCdlmBQr-280" value="" style="shape=tableRow;horizontal=0;startSize=0;swimlaneHead=0;swimlaneBody=0;fillColor=none;collapsible=0;dropTarget=0;points=[[0,0.5],[1,0.5]];portConstraint=eastwest;top=0;left=0;right=0;bottom=0;" vertex="1" parent="FiXkTNru_0fniCdlmBQr-267">
          <mxGeometry y="224" width="180" height="32" as="geometry" />
        </mxCell>
        <mxCell id="FiXkTNru_0fniCdlmBQr-281" value="time8" style="shape=partialRectangle;connectable=0;fillColor=none;top=0;left=0;bottom=0;right=0;editable=1;overflow=hidden;" vertex="1" parent="FiXkTNru_0fniCdlmBQr-280">
          <mxGeometry width="40.00000000000023" height="32" as="geometry">
            <mxRectangle width="40.00000000000023" height="32" as="alternateBounds" />
          </mxGeometry>
        </mxCell>
        <mxCell id="FiXkTNru_0fniCdlmBQr-282" value="updated_datetime_utc" style="shape=partialRectangle;connectable=0;fillColor=none;top=0;left=0;bottom=0;right=0;align=left;spacingLeft=6;overflow=hidden;" vertex="1" parent="FiXkTNru_0fniCdlmBQr-280">
          <mxGeometry x="40.00000000000023" width="139.99999999999977" height="32" as="geometry">
            <mxRectangle width="139.99999999999977" height="32" as="alternateBounds" />
          </mxGeometry>
        </mxCell>
        <mxCell id="FiXkTNru_0fniCdlmBQr-283" value="" style="shape=tableRow;horizontal=0;startSize=0;swimlaneHead=0;swimlaneBody=0;fillColor=none;collapsible=0;dropTarget=0;points=[[0,0.5],[1,0.5]];portConstraint=eastwest;top=0;left=0;right=0;bottom=0;" vertex="1" parent="FiXkTNru_0fniCdlmBQr-267">
          <mxGeometry y="256" width="180" height="32" as="geometry" />
        </mxCell>
        <mxCell id="FiXkTNru_0fniCdlmBQr-284" value="bool" style="shape=partialRectangle;connectable=0;fillColor=none;top=0;left=0;bottom=0;right=0;editable=1;overflow=hidden;" vertex="1" parent="FiXkTNru_0fniCdlmBQr-283">
          <mxGeometry width="40.00000000000023" height="32" as="geometry">
            <mxRectangle width="40.00000000000023" height="32" as="alternateBounds" />
          </mxGeometry>
        </mxCell>
        <mxCell id="FiXkTNru_0fniCdlmBQr-285" value="active" style="shape=partialRectangle;connectable=0;fillColor=none;top=0;left=0;bottom=0;right=0;align=left;spacingLeft=6;overflow=hidden;" vertex="1" parent="FiXkTNru_0fniCdlmBQr-283">
          <mxGeometry x="40.00000000000023" width="139.99999999999977" height="32" as="geometry">
            <mxRectangle width="139.99999999999977" height="32" as="alternateBounds" />
          </mxGeometry>
        </mxCell>
        <mxCell id="FiXkTNru_0fniCdlmBQr-72" value="tbl_work_history" style="shape=table;startSize=30;container=1;collapsible=1;childLayout=tableLayout;fixedRows=1;rowLines=0;fontStyle=1;align=center;resizeLast=1;fillColor=#fff2cc;strokeColor=#d6b656;rounded=1;shadow=0;swimlaneLine=1;sketch=0;columnLines=1;" vertex="1" parent="1">
          <mxGeometry x="720" y="-160" width="180" height="455" as="geometry" />
        </mxCell>
        <mxCell id="FiXkTNru_0fniCdlmBQr-73" value="" style="shape=tableRow;horizontal=0;startSize=0;swimlaneHead=0;swimlaneBody=0;fillColor=none;collapsible=0;dropTarget=0;points=[[0,0.5],[1,0.5]];portConstraint=eastwest;top=0;left=0;right=0;bottom=1;" vertex="1" parent="FiXkTNru_0fniCdlmBQr-72">
          <mxGeometry y="30" width="180" height="33" as="geometry" />
        </mxCell>
        <mxCell id="FiXkTNru_0fniCdlmBQr-74" value="PK" style="shape=partialRectangle;connectable=0;fillColor=none;top=0;left=0;bottom=0;right=0;fontStyle=1;overflow=hidden;" vertex="1" parent="FiXkTNru_0fniCdlmBQr-73">
          <mxGeometry width="40.00000000000023" height="33" as="geometry">
            <mxRectangle width="40.00000000000023" height="33" as="alternateBounds" />
          </mxGeometry>
        </mxCell>
        <mxCell id="FiXkTNru_0fniCdlmBQr-75" value="id" style="shape=partialRectangle;connectable=0;fillColor=none;top=0;left=0;bottom=0;right=0;align=left;spacingLeft=6;fontStyle=5;overflow=hidden;" vertex="1" parent="FiXkTNru_0fniCdlmBQr-73">
          <mxGeometry x="40.00000000000023" width="139.99999999999977" height="33" as="geometry">
            <mxRectangle width="139.99999999999977" height="33" as="alternateBounds" />
          </mxGeometry>
        </mxCell>
        <mxCell id="FiXkTNru_0fniCdlmBQr-417" value="" style="shape=tableRow;horizontal=0;startSize=0;swimlaneHead=0;swimlaneBody=0;fillColor=none;collapsible=0;dropTarget=0;points=[[0,0.5],[1,0.5]];portConstraint=eastwest;top=0;left=0;right=0;bottom=1;" vertex="1" parent="FiXkTNru_0fniCdlmBQr-72">
          <mxGeometry y="63" width="180" height="33" as="geometry" />
        </mxCell>
        <mxCell id="FiXkTNru_0fniCdlmBQr-418" value="FK" style="shape=partialRectangle;connectable=0;fillColor=none;top=0;left=0;bottom=0;right=0;fontStyle=1;overflow=hidden;" vertex="1" parent="FiXkTNru_0fniCdlmBQr-417">
          <mxGeometry width="40.00000000000023" height="33" as="geometry">
            <mxRectangle width="40.00000000000023" height="33" as="alternateBounds" />
          </mxGeometry>
        </mxCell>
        <mxCell id="FiXkTNru_0fniCdlmBQr-419" value="company_id" style="shape=partialRectangle;connectable=0;fillColor=none;top=0;left=0;bottom=0;right=0;align=left;spacingLeft=6;fontStyle=5;overflow=hidden;" vertex="1" parent="FiXkTNru_0fniCdlmBQr-417">
          <mxGeometry x="40.00000000000023" width="139.99999999999977" height="33" as="geometry">
            <mxRectangle width="139.99999999999977" height="33" as="alternateBounds" />
          </mxGeometry>
        </mxCell>
        <mxCell id="FiXkTNru_0fniCdlmBQr-76" value="" style="shape=tableRow;horizontal=0;startSize=0;swimlaneHead=0;swimlaneBody=0;fillColor=none;collapsible=0;dropTarget=0;points=[[0,0.5],[1,0.5]];portConstraint=eastwest;top=0;left=0;right=0;bottom=0;" vertex="1" parent="FiXkTNru_0fniCdlmBQr-72">
          <mxGeometry y="96" width="180" height="32" as="geometry" />
        </mxCell>
        <mxCell id="FiXkTNru_0fniCdlmBQr-77" value="text" style="shape=partialRectangle;connectable=0;fillColor=none;top=0;left=0;bottom=0;right=0;editable=1;overflow=hidden;" vertex="1" parent="FiXkTNru_0fniCdlmBQr-76">
          <mxGeometry width="40.00000000000023" height="32" as="geometry">
            <mxRectangle width="40.00000000000023" height="32" as="alternateBounds" />
          </mxGeometry>
        </mxCell>
        <mxCell id="FiXkTNru_0fniCdlmBQr-78" value="name" style="shape=partialRectangle;connectable=0;fillColor=none;top=0;left=0;bottom=0;right=0;align=left;spacingLeft=6;overflow=hidden;" vertex="1" parent="FiXkTNru_0fniCdlmBQr-76">
          <mxGeometry x="40.00000000000023" width="139.99999999999977" height="32" as="geometry">
            <mxRectangle width="139.99999999999977" height="32" as="alternateBounds" />
          </mxGeometry>
        </mxCell>
        <mxCell id="FiXkTNru_0fniCdlmBQr-79" value="" style="shape=tableRow;horizontal=0;startSize=0;swimlaneHead=0;swimlaneBody=0;fillColor=none;collapsible=0;dropTarget=0;points=[[0,0.5],[1,0.5]];portConstraint=eastwest;top=0;left=0;right=0;bottom=0;" vertex="1" parent="FiXkTNru_0fniCdlmBQr-72">
          <mxGeometry y="128" width="180" height="33" as="geometry" />
        </mxCell>
        <mxCell id="FiXkTNru_0fniCdlmBQr-80" value="text?" style="shape=partialRectangle;connectable=0;fillColor=none;top=0;left=0;bottom=0;right=0;editable=1;overflow=hidden;" vertex="1" parent="FiXkTNru_0fniCdlmBQr-79">
          <mxGeometry width="40.00000000000023" height="33" as="geometry">
            <mxRectangle width="40.00000000000023" height="33" as="alternateBounds" />
          </mxGeometry>
        </mxCell>
        <mxCell id="FiXkTNru_0fniCdlmBQr-81" value="description" style="shape=partialRectangle;connectable=0;fillColor=none;top=0;left=0;bottom=0;right=0;align=left;spacingLeft=6;overflow=hidden;" vertex="1" parent="FiXkTNru_0fniCdlmBQr-79">
          <mxGeometry x="40.00000000000023" width="139.99999999999977" height="33" as="geometry">
            <mxRectangle width="139.99999999999977" height="33" as="alternateBounds" />
          </mxGeometry>
        </mxCell>
        <mxCell id="FiXkTNru_0fniCdlmBQr-109" value="" style="shape=tableRow;horizontal=0;startSize=0;swimlaneHead=0;swimlaneBody=0;fillColor=none;collapsible=0;dropTarget=0;points=[[0,0.5],[1,0.5]];portConstraint=eastwest;top=0;left=0;right=0;bottom=0;" vertex="1" parent="FiXkTNru_0fniCdlmBQr-72">
          <mxGeometry y="161" width="180" height="33" as="geometry" />
        </mxCell>
        <mxCell id="FiXkTNru_0fniCdlmBQr-110" value="text?" style="shape=partialRectangle;connectable=0;fillColor=none;top=0;left=0;bottom=0;right=0;editable=1;overflow=hidden;" vertex="1" parent="FiXkTNru_0fniCdlmBQr-109">
          <mxGeometry width="40.00000000000023" height="33" as="geometry">
            <mxRectangle width="40.00000000000023" height="33" as="alternateBounds" />
          </mxGeometry>
        </mxCell>
        <mxCell id="FiXkTNru_0fniCdlmBQr-111" value="required_skills" style="shape=partialRectangle;connectable=0;fillColor=none;top=0;left=0;bottom=0;right=0;align=left;spacingLeft=6;overflow=hidden;" vertex="1" parent="FiXkTNru_0fniCdlmBQr-109">
          <mxGeometry x="40.00000000000023" width="139.99999999999977" height="33" as="geometry">
            <mxRectangle width="139.99999999999977" height="33" as="alternateBounds" />
          </mxGeometry>
        </mxCell>
        <mxCell id="FiXkTNru_0fniCdlmBQr-82" value="" style="shape=tableRow;horizontal=0;startSize=0;swimlaneHead=0;swimlaneBody=0;fillColor=none;collapsible=0;dropTarget=0;points=[[0,0.5],[1,0.5]];portConstraint=eastwest;top=0;left=0;right=0;bottom=0;" vertex="1" parent="FiXkTNru_0fniCdlmBQr-72">
          <mxGeometry y="194" width="180" height="33" as="geometry" />
        </mxCell>
        <mxCell id="FiXkTNru_0fniCdlmBQr-83" value="int2?" style="shape=partialRectangle;connectable=0;fillColor=none;top=0;left=0;bottom=0;right=0;editable=1;overflow=hidden;" vertex="1" parent="FiXkTNru_0fniCdlmBQr-82">
          <mxGeometry width="40.00000000000023" height="33" as="geometry">
            <mxRectangle width="40.00000000000023" height="33" as="alternateBounds" />
          </mxGeometry>
        </mxCell>
        <mxCell id="FiXkTNru_0fniCdlmBQr-84" value="team_size" style="shape=partialRectangle;connectable=0;fillColor=none;top=0;left=0;bottom=0;right=0;align=left;spacingLeft=6;overflow=hidden;" vertex="1" parent="FiXkTNru_0fniCdlmBQr-82">
          <mxGeometry x="40.00000000000023" width="139.99999999999977" height="33" as="geometry">
            <mxRectangle width="139.99999999999977" height="33" as="alternateBounds" />
          </mxGeometry>
        </mxCell>
        <mxCell id="FiXkTNru_0fniCdlmBQr-100" value="" style="shape=tableRow;horizontal=0;startSize=0;swimlaneHead=0;swimlaneBody=0;fillColor=none;collapsible=0;dropTarget=0;points=[[0,0.5],[1,0.5]];portConstraint=eastwest;top=0;left=0;right=0;bottom=0;" vertex="1" parent="FiXkTNru_0fniCdlmBQr-72">
          <mxGeometry y="227" width="180" height="33" as="geometry" />
        </mxCell>
        <mxCell id="FiXkTNru_0fniCdlmBQr-101" value="text?" style="shape=partialRectangle;connectable=0;fillColor=none;top=0;left=0;bottom=0;right=0;editable=1;overflow=hidden;" vertex="1" parent="FiXkTNru_0fniCdlmBQr-100">
          <mxGeometry width="40.00000000000023" height="33" as="geometry">
            <mxRectangle width="40.00000000000023" height="33" as="alternateBounds" />
          </mxGeometry>
        </mxCell>
        <mxCell id="FiXkTNru_0fniCdlmBQr-102" value="position" style="shape=partialRectangle;connectable=0;fillColor=none;top=0;left=0;bottom=0;right=0;align=left;spacingLeft=6;overflow=hidden;" vertex="1" parent="FiXkTNru_0fniCdlmBQr-100">
          <mxGeometry x="40.00000000000023" width="139.99999999999977" height="33" as="geometry">
            <mxRectangle width="139.99999999999977" height="33" as="alternateBounds" />
          </mxGeometry>
        </mxCell>
        <mxCell id="FiXkTNru_0fniCdlmBQr-106" value="" style="shape=tableRow;horizontal=0;startSize=0;swimlaneHead=0;swimlaneBody=0;fillColor=none;collapsible=0;dropTarget=0;points=[[0,0.5],[1,0.5]];portConstraint=eastwest;top=0;left=0;right=0;bottom=0;" vertex="1" parent="FiXkTNru_0fniCdlmBQr-72">
          <mxGeometry y="260" width="180" height="33" as="geometry" />
        </mxCell>
        <mxCell id="FiXkTNru_0fniCdlmBQr-107" value="text?" style="shape=partialRectangle;connectable=0;fillColor=none;top=0;left=0;bottom=0;right=0;editable=1;overflow=hidden;" vertex="1" parent="FiXkTNru_0fniCdlmBQr-106">
          <mxGeometry width="40.00000000000023" height="33" as="geometry">
            <mxRectangle width="40.00000000000023" height="33" as="alternateBounds" />
          </mxGeometry>
        </mxCell>
        <mxCell id="FiXkTNru_0fniCdlmBQr-108" value="responsibilities" style="shape=partialRectangle;connectable=0;fillColor=none;top=0;left=0;bottom=0;right=0;align=left;spacingLeft=6;overflow=hidden;" vertex="1" parent="FiXkTNru_0fniCdlmBQr-106">
          <mxGeometry x="40.00000000000023" width="139.99999999999977" height="33" as="geometry">
            <mxRectangle width="139.99999999999977" height="33" as="alternateBounds" />
          </mxGeometry>
        </mxCell>
        <mxCell id="FiXkTNru_0fniCdlmBQr-85" value="" style="shape=tableRow;horizontal=0;startSize=0;swimlaneHead=0;swimlaneBody=0;fillColor=none;collapsible=0;dropTarget=0;points=[[0,0.5],[1,0.5]];portConstraint=eastwest;top=0;left=0;right=0;bottom=0;" vertex="1" parent="FiXkTNru_0fniCdlmBQr-72">
          <mxGeometry y="293" width="180" height="33" as="geometry" />
        </mxCell>
        <mxCell id="FiXkTNru_0fniCdlmBQr-86" value="date" style="shape=partialRectangle;connectable=0;fillColor=none;top=0;left=0;bottom=0;right=0;editable=1;overflow=hidden;" vertex="1" parent="FiXkTNru_0fniCdlmBQr-85">
          <mxGeometry width="40.00000000000023" height="33" as="geometry">
            <mxRectangle width="40.00000000000023" height="33" as="alternateBounds" />
          </mxGeometry>
        </mxCell>
        <mxCell id="FiXkTNru_0fniCdlmBQr-87" value="start_date" style="shape=partialRectangle;connectable=0;fillColor=none;top=0;left=0;bottom=0;right=0;align=left;spacingLeft=6;overflow=hidden;" vertex="1" parent="FiXkTNru_0fniCdlmBQr-85">
          <mxGeometry x="40.00000000000023" width="139.99999999999977" height="33" as="geometry">
            <mxRectangle width="139.99999999999977" height="33" as="alternateBounds" />
          </mxGeometry>
        </mxCell>
        <mxCell id="FiXkTNru_0fniCdlmBQr-88" value="" style="shape=tableRow;horizontal=0;startSize=0;swimlaneHead=0;swimlaneBody=0;fillColor=none;collapsible=0;dropTarget=0;points=[[0,0.5],[1,0.5]];portConstraint=eastwest;top=0;left=0;right=0;bottom=0;" vertex="1" parent="FiXkTNru_0fniCdlmBQr-72">
          <mxGeometry y="326" width="180" height="33" as="geometry" />
        </mxCell>
        <mxCell id="FiXkTNru_0fniCdlmBQr-89" value="date?" style="shape=partialRectangle;connectable=0;fillColor=none;top=0;left=0;bottom=0;right=0;editable=1;overflow=hidden;" vertex="1" parent="FiXkTNru_0fniCdlmBQr-88">
          <mxGeometry width="40.00000000000023" height="33" as="geometry">
            <mxRectangle width="40.00000000000023" height="33" as="alternateBounds" />
          </mxGeometry>
        </mxCell>
        <mxCell id="FiXkTNru_0fniCdlmBQr-90" value="end_date" style="shape=partialRectangle;connectable=0;fillColor=none;top=0;left=0;bottom=0;right=0;align=left;spacingLeft=6;overflow=hidden;" vertex="1" parent="FiXkTNru_0fniCdlmBQr-88">
          <mxGeometry x="40.00000000000023" width="139.99999999999977" height="33" as="geometry">
            <mxRectangle width="139.99999999999977" height="33" as="alternateBounds" />
          </mxGeometry>
        </mxCell>
        <mxCell id="FiXkTNru_0fniCdlmBQr-91" value="" style="shape=tableRow;horizontal=0;startSize=0;swimlaneHead=0;swimlaneBody=0;fillColor=none;collapsible=0;dropTarget=0;points=[[0,0.5],[1,0.5]];portConstraint=eastwest;top=0;left=0;right=0;bottom=0;" vertex="1" parent="FiXkTNru_0fniCdlmBQr-72">
          <mxGeometry y="359" width="180" height="32" as="geometry" />
        </mxCell>
        <mxCell id="FiXkTNru_0fniCdlmBQr-92" value="time8" style="shape=partialRectangle;connectable=0;fillColor=none;top=0;left=0;bottom=0;right=0;editable=1;overflow=hidden;" vertex="1" parent="FiXkTNru_0fniCdlmBQr-91">
          <mxGeometry width="40.00000000000023" height="32" as="geometry">
            <mxRectangle width="40.00000000000023" height="32" as="alternateBounds" />
          </mxGeometry>
        </mxCell>
        <mxCell id="FiXkTNru_0fniCdlmBQr-93" value="created_datetime_utc" style="shape=partialRectangle;connectable=0;fillColor=none;top=0;left=0;bottom=0;right=0;align=left;spacingLeft=6;overflow=hidden;" vertex="1" parent="FiXkTNru_0fniCdlmBQr-91">
          <mxGeometry x="40.00000000000023" width="139.99999999999977" height="32" as="geometry">
            <mxRectangle width="139.99999999999977" height="32" as="alternateBounds" />
          </mxGeometry>
        </mxCell>
        <mxCell id="FiXkTNru_0fniCdlmBQr-94" value="" style="shape=tableRow;horizontal=0;startSize=0;swimlaneHead=0;swimlaneBody=0;fillColor=none;collapsible=0;dropTarget=0;points=[[0,0.5],[1,0.5]];portConstraint=eastwest;top=0;left=0;right=0;bottom=0;" vertex="1" parent="FiXkTNru_0fniCdlmBQr-72">
          <mxGeometry y="391" width="180" height="32" as="geometry" />
        </mxCell>
        <mxCell id="FiXkTNru_0fniCdlmBQr-95" value="time8" style="shape=partialRectangle;connectable=0;fillColor=none;top=0;left=0;bottom=0;right=0;editable=1;overflow=hidden;" vertex="1" parent="FiXkTNru_0fniCdlmBQr-94">
          <mxGeometry width="40.00000000000023" height="32" as="geometry">
            <mxRectangle width="40.00000000000023" height="32" as="alternateBounds" />
          </mxGeometry>
        </mxCell>
        <mxCell id="FiXkTNru_0fniCdlmBQr-96" value="updated_datetime_utc" style="shape=partialRectangle;connectable=0;fillColor=none;top=0;left=0;bottom=0;right=0;align=left;spacingLeft=6;overflow=hidden;" vertex="1" parent="FiXkTNru_0fniCdlmBQr-94">
          <mxGeometry x="40.00000000000023" width="139.99999999999977" height="32" as="geometry">
            <mxRectangle width="139.99999999999977" height="32" as="alternateBounds" />
          </mxGeometry>
        </mxCell>
        <mxCell id="FiXkTNru_0fniCdlmBQr-97" value="" style="shape=tableRow;horizontal=0;startSize=0;swimlaneHead=0;swimlaneBody=0;fillColor=none;collapsible=0;dropTarget=0;points=[[0,0.5],[1,0.5]];portConstraint=eastwest;top=0;left=0;right=0;bottom=0;" vertex="1" parent="FiXkTNru_0fniCdlmBQr-72">
          <mxGeometry y="423" width="180" height="32" as="geometry" />
        </mxCell>
        <mxCell id="FiXkTNru_0fniCdlmBQr-98" value="bool" style="shape=partialRectangle;connectable=0;fillColor=none;top=0;left=0;bottom=0;right=0;editable=1;overflow=hidden;" vertex="1" parent="FiXkTNru_0fniCdlmBQr-97">
          <mxGeometry width="40.00000000000023" height="32" as="geometry">
            <mxRectangle width="40.00000000000023" height="32" as="alternateBounds" />
          </mxGeometry>
        </mxCell>
        <mxCell id="FiXkTNru_0fniCdlmBQr-99" value="active" style="shape=partialRectangle;connectable=0;fillColor=none;top=0;left=0;bottom=0;right=0;align=left;spacingLeft=6;overflow=hidden;" vertex="1" parent="FiXkTNru_0fniCdlmBQr-97">
          <mxGeometry x="40.00000000000023" width="139.99999999999977" height="32" as="geometry">
            <mxRectangle width="139.99999999999977" height="32" as="alternateBounds" />
          </mxGeometry>
        </mxCell>
        <mxCell id="VqIRqjXax7T4qneetQDV-51" value="" style="edgeStyle=elbowEdgeStyle;html=1;endArrow=ERoneToMany;rounded=1;exitX=0;exitY=0.5;exitDx=0;exitDy=0;entryX=0;entryY=0.5;entryDx=0;entryDy=0;fillColor=#d5e8d4;strokeColor=#000000;" parent="1" source="FiXkTNru_0fniCdlmBQr-311" target="FiXkTNru_0fniCdlmBQr-381" edge="1">
          <mxGeometry width="100" height="100" relative="1" as="geometry">
            <mxPoint x="50" y="397" as="sourcePoint" />
            <mxPoint x="50" y="160" as="targetPoint" />
            <Array as="points">
              <mxPoint x="110" y="230" />
            </Array>
          </mxGeometry>
        </mxCell>
        <mxCell id="FiXkTNru_0fniCdlmBQr-390" value="" style="edgeStyle=elbowEdgeStyle;html=1;endArrow=ERoneToMany;rounded=1;exitX=1;exitY=0.5;exitDx=0;exitDy=0;entryX=0;entryY=0.5;entryDx=0;entryDy=0;fillColor=#d5e8d4;strokeColor=#000000;" edge="1" parent="1" source="FiXkTNru_0fniCdlmBQr-311" target="FiXkTNru_0fniCdlmBQr-347">
          <mxGeometry width="100" height="100" relative="1" as="geometry">
            <mxPoint x="170" y="417" as="sourcePoint" />
            <mxPoint x="170" y="49" as="targetPoint" />
            <Array as="points">
              <mxPoint x="380" y="420" />
            </Array>
          </mxGeometry>
        </mxCell>
        <mxCell id="FiXkTNru_0fniCdlmBQr-391" value="" style="edgeStyle=elbowEdgeStyle;html=1;endArrow=ERoneToMany;rounded=1;exitX=0;exitY=0.5;exitDx=0;exitDy=0;entryX=1;entryY=0.5;entryDx=0;entryDy=0;fillColor=#fff2cc;strokeColor=#000000;" edge="1" parent="1" source="VqIRqjXax7T4qneetQDV-251" target="FiXkTNru_0fniCdlmBQr-307">
          <mxGeometry width="100" height="100" relative="1" as="geometry">
            <mxPoint x="320" y="510" as="sourcePoint" />
            <mxPoint x="420" y="542" as="targetPoint" />
            <Array as="points">
              <mxPoint x="390" y="640" />
            </Array>
          </mxGeometry>
        </mxCell>
        <mxCell id="FiXkTNru_0fniCdlmBQr-392" value="" style="edgeStyle=elbowEdgeStyle;html=1;endArrow=ERoneToMany;rounded=1;exitX=0;exitY=0.5;exitDx=0;exitDy=0;entryX=0;entryY=0.5;entryDx=0;entryDy=0;fillColor=#d5e8d4;strokeColor=#000000;" edge="1" parent="1" source="VqIRqjXax7T4qneetQDV-251" target="FiXkTNru_0fniCdlmBQr-301">
          <mxGeometry width="100" height="100" relative="1" as="geometry">
            <mxPoint x="450" y="417" as="sourcePoint" />
            <mxPoint x="350" y="890" as="targetPoint" />
            <Array as="points">
              <mxPoint x="400" y="650" />
            </Array>
          </mxGeometry>
        </mxCell>
        <mxCell id="FiXkTNru_0fniCdlmBQr-405" value="" style="edgeStyle=elbowEdgeStyle;html=1;endArrow=ERoneToMany;rounded=1;exitX=1;exitY=0.5;exitDx=0;exitDy=0;entryX=0;entryY=0.5;entryDx=0;entryDy=0;fillColor=#d5e8d4;strokeColor=#000000;" edge="1" parent="1" source="VqIRqjXax7T4qneetQDV-251" target="FiXkTNru_0fniCdlmBQr-393">
          <mxGeometry width="100" height="100" relative="1" as="geometry">
            <mxPoint x="700" y="440" as="sourcePoint" />
            <mxPoint x="700" y="960" as="targetPoint" />
            <Array as="points">
              <mxPoint x="660" y="650" />
            </Array>
          </mxGeometry>
        </mxCell>
        <mxCell id="FiXkTNru_0fniCdlmBQr-409" value="" style="edgeStyle=elbowEdgeStyle;html=1;endArrow=ERoneToMany;rounded=1;exitX=1;exitY=0.5;exitDx=0;exitDy=0;entryX=0;entryY=0.5;entryDx=0;entryDy=0;fillColor=#d5e8d4;strokeColor=#000000;" edge="1" parent="1" source="VqIRqjXax7T4qneetQDV-251" target="FiXkTNru_0fniCdlmBQr-295">
          <mxGeometry width="100" height="100" relative="1" as="geometry">
            <mxPoint x="630" y="417" as="sourcePoint" />
            <mxPoint x="730" y="850" as="targetPoint" />
          </mxGeometry>
        </mxCell>
        <mxCell id="FiXkTNru_0fniCdlmBQr-410" value="" style="edgeStyle=elbowEdgeStyle;html=1;endArrow=ERoneToMany;rounded=1;exitX=1;exitY=0.5;exitDx=0;exitDy=0;fillColor=#d5e8d4;strokeColor=#000000;entryX=1;entryY=0.5;entryDx=0;entryDy=0;" edge="1" parent="1" source="VqIRqjXax7T4qneetQDV-251" target="FiXkTNru_0fniCdlmBQr-414">
          <mxGeometry width="100" height="100" relative="1" as="geometry">
            <mxPoint x="630" y="417" as="sourcePoint" />
            <mxPoint x="670" y="330" as="targetPoint" />
            <Array as="points">
              <mxPoint x="660" y="230" />
            </Array>
          </mxGeometry>
        </mxCell>
        <mxCell id="FiXkTNru_0fniCdlmBQr-420" value="" style="edgeStyle=elbowEdgeStyle;html=1;endArrow=ERoneToMany;rounded=1;exitX=1;exitY=0.5;exitDx=0;exitDy=0;fillColor=#d5e8d4;strokeColor=#000000;entryX=0;entryY=0.5;entryDx=0;entryDy=0;" edge="1" parent="1" source="FiXkTNru_0fniCdlmBQr-45" target="FiXkTNru_0fniCdlmBQr-417">
          <mxGeometry width="100" height="100" relative="1" as="geometry">
            <mxPoint x="620" y="-91" as="sourcePoint" />
            <mxPoint x="620" y="-460" as="targetPoint" />
          </mxGeometry>
        </mxCell>
        <mxCell id="FiXkTNru_0fniCdlmBQr-406" value="" style="edgeStyle=elbowEdgeStyle;html=1;endArrow=ERoneToMany;rounded=1;exitX=0;exitY=0.5;exitDx=0;exitDy=0;entryX=0;entryY=0.5;entryDx=0;entryDy=0;fillColor=#d5e8d4;strokeColor=#000000;" edge="1" parent="1" source="FiXkTNru_0fniCdlmBQr-246" target="FiXkTNru_0fniCdlmBQr-396">
          <mxGeometry width="100" height="100" relative="1" as="geometry">
            <mxPoint x="1030" y="793" as="sourcePoint" />
            <mxPoint x="930" y="360" as="targetPoint" />
            <Array as="points">
              <mxPoint x="970" y="603" />
            </Array>
          </mxGeometry>
        </mxCell>
        <mxCell id="FiXkTNru_0fniCdlmBQr-407" value="" style="edgeStyle=elbowEdgeStyle;html=1;endArrow=ERoneToMany;rounded=1;exitX=0;exitY=0.5;exitDx=0;exitDy=0;fillColor=#d5e8d4;strokeColor=#000000;entryX=0;entryY=0.5;entryDx=0;entryDy=0;" edge="1" parent="1" source="FiXkTNru_0fniCdlmBQr-246" target="FiXkTNru_0fniCdlmBQr-304">
          <mxGeometry width="100" height="100" relative="1" as="geometry">
            <mxPoint x="1010" y="777" as="sourcePoint" />
            <mxPoint x="940" y="820" as="targetPoint" />
            <Array as="points">
              <mxPoint x="970" y="920" />
            </Array>
          </mxGeometry>
        </mxCell>
        <mxCell id="FiXkTNru_0fniCdlmBQr-408" value="" style="edgeStyle=elbowEdgeStyle;html=1;endArrow=ERoneToMany;rounded=1;exitX=0;exitY=0.5;exitDx=0;exitDy=0;entryX=1;entryY=0.5;entryDx=0;entryDy=0;fillColor=#d5e8d4;strokeColor=#000000;" edge="1" parent="1" source="FiXkTNru_0fniCdlmBQr-224" target="FiXkTNru_0fniCdlmBQr-298">
          <mxGeometry width="100" height="100" relative="1" as="geometry">
            <mxPoint x="1010" y="370" as="sourcePoint" />
            <mxPoint x="1010" y="777" as="targetPoint" />
          </mxGeometry>
        </mxCell>
      </root>
    </mxGraphModel>
  </diagram>
</mxfile>
